<?xml version="1.0" encoding="UTF-8"?>
<!DOCTYPE svg PUBLIC "-//W3C//DTD SVG 1.1//EN" "http://www.w3.org/Graphics/SVG/1.1/DTD/svg11.dtd">
<svg xmlns="http://www.w3.org/2000/svg" version="1.1" width="197px" height="173px" style="shape-rendering:geometricPrecision; text-rendering:geometricPrecision; image-rendering:optimizeQuality; fill-rule:evenodd; clip-rule:evenodd" xmlns:xlink="http://www.w3.org/1999/xlink">
<g><path style="opacity:0.257" fill="#1f91c0" d="M 113.5,30.5 C 106.804,30.391 100.137,30.7243 93.5,31.5C 97.2227,30.0033 101.223,29.3367 105.5,29.5C 108.355,29.5025 111.022,29.8359 113.5,30.5 Z"/></g>
<g><path style="opacity:1" fill="#1f91c0" d="M 113.5,30.5 C 117.137,31.2635 120.47,32.5968 123.5,34.5C 124.514,35.6737 125.847,36.3404 127.5,36.5C 130.089,37.4194 132.089,39.086 133.5,41.5C 134.167,42.8333 135.167,43.8333 136.5,44.5C 137.5,44.8333 138.167,45.5 138.5,46.5C 138.427,48.0269 139.094,49.0269 140.5,49.5C 142.008,51.1815 143.008,53.1815 143.5,55.5C 143.41,58.1522 144.076,60.4855 145.5,62.5C 146.769,68.3512 146.769,74.3512 145.5,80.5C 146.437,82.288 147.77,83.6214 149.5,84.5C 150.038,86.1172 150.371,87.7839 150.5,89.5C 149.326,90.5137 148.66,91.847 148.5,93.5C 146.145,98.8795 142.812,103.546 138.5,107.5C 137.094,107.973 136.427,108.973 136.5,110.5C 134.167,113.5 131.5,116.167 128.5,118.5C 126.596,118.738 125.262,119.738 124.5,121.5C 123.292,124.044 121.292,125.378 118.5,125.5C 106.162,125.333 93.8288,125.5 81.5,126C 82.0442,126.717 82.7109,127.217 83.5,127.5C 85.4411,129.011 85.9411,131.011 85,133.5C 81.1667,137.333 77.3333,141.167 73.5,145C 72.1667,145.667 70.8333,145.667 69.5,145C 60,135.5 50.5,126 41,116.5C 40.235,114.934 40.4017,113.601 41.5,112.5C 45.5,109.167 49.1667,105.5 52.5,101.5C 53.609,101.443 54.609,101.11 55.5,100.5C 57.1667,101.167 58.8333,101.833 60.5,102.5C 62.5869,101.415 63.9202,99.7488 64.5,97.5C 65.5,95.8333 66.8333,94.5 68.5,93.5C 71.1667,92.1667 71.1667,90.8333 68.5,89.5C 67.6373,87.5786 66.9707,85.5786 66.5,83.5C 66.4349,80.5718 65.7682,77.9052 64.5,75.5C 64.5,71.8333 64.5,68.1667 64.5,64.5C 65.9238,62.4855 66.5905,60.1522 66.5,57.5C 66.4021,55.4471 67.0687,53.7804 68.5,52.5C 69.9063,52.0269 70.573,51.0269 70.5,49.5C 70.427,47.9731 71.0937,46.9731 72.5,46.5C 74.5869,45.4154 75.9202,43.7488 76.5,41.5C 78.7488,40.9202 80.4154,39.5869 81.5,37.5C 83.0269,37.573 84.0269,36.9063 84.5,35.5C 84.8417,34.6618 85.5084,34.3284 86.5,34.5C 88.153,34.3404 89.4863,33.6737 90.5,32.5C 91.209,31.596 92.209,31.2627 93.5,31.5C 100.137,30.7243 106.804,30.391 113.5,30.5 Z M 111.5,35.5 C 115.698,36.2672 119.698,37.6005 123.5,39.5C 123.443,40.609 123.11,41.609 122.5,42.5C 120.181,42.9925 118.181,43.9925 116.5,45.5C 112.84,45.1588 109.507,45.8255 106.5,47.5C 101.874,49.1401 99.5406,52.4735 99.5,57.5C 99.4357,59.5566 100.102,61.2233 101.5,62.5C 102.172,63.2674 103.005,63.9341 104,64.5C 107.394,63.5442 110.894,63.2108 114.5,63.5C 120.25,64.2596 124.25,67.2596 126.5,72.5C 131.897,72.7324 136.897,73.7324 141.5,75.5C 140.264,77.649 139.264,79.9823 138.5,82.5C 136.326,82.7497 134.659,83.7497 133.5,85.5C 131.167,87.1667 129.167,89.1667 127.5,91.5C 125.596,91.7376 124.262,92.7376 123.5,94.5C 120.904,95.2653 118.237,95.5987 115.5,95.5C 111.353,94.6753 107.019,94.1753 102.5,94C 97.6456,91.8999 92.6456,90.3999 87.5,89.5C 86.4489,88.7777 85.7822,87.7777 85.5,86.5C 88.699,84.0217 89.199,81.0217 87,77.5C 82.3661,70.8601 77.8661,70.8601 73.5,77.5C 72.1301,79.7073 72.7968,81.374 75.5,82.5C 76.8549,81.8118 77.8549,80.8118 78.5,79.5C 79.8804,78.2935 81.0471,78.6269 82,80.5C 82.4696,81.5768 82.3029,82.5768 81.5,83.5C 80.5,83.5 79.5,83.5 78.5,83.5C 78.2965,85.3904 78.9632,86.8904 80.5,88C 78.294,89.8068 75.9606,89.9735 73.5,88.5C 72.6621,85.3136 71.6621,82.1469 70.5,79C 72.9592,75.91 75.2925,72.7434 77.5,69.5C 78.9063,69.0269 79.573,68.0269 79.5,66.5C 80.5,66.1667 81.1667,65.5 81.5,64.5C 83.0861,63.5868 84.5861,63.5868 86,64.5C 86.7172,63.9558 87.2172,63.2891 87.5,62.5C 88.2674,61.828 88.9341,60.9947 89.5,60C 88.868,56.7296 88.2014,53.5629 87.5,50.5C 87.0334,47.7026 85.3667,46.3692 82.5,46.5C 82.1667,45.8333 81.8333,45.1667 81.5,44.5C 82.8333,43.8333 83.8333,42.8333 84.5,41.5C 86.3684,40.7368 88.0351,39.7368 89.5,38.5C 91.153,38.3404 92.4863,37.6737 93.5,36.5C 99.4638,35.6932 105.464,35.3599 111.5,35.5 Z M 141.5,65.5 C 140.306,66.7773 138.64,67.4439 136.5,67.5C 133.308,67.5512 130.308,66.8845 127.5,65.5C 127.5,64.8333 127.167,64.5 126.5,64.5C 126.573,62.9731 125.906,61.9731 124.5,61.5C 124.027,60.0937 123.027,59.427 121.5,59.5C 120.791,58.596 119.791,58.2627 118.5,58.5C 114.702,57.5166 110.702,57.1832 106.5,57.5C 106.5,56.1667 106.5,54.8333 106.5,53.5C 111.032,52.0105 115.698,50.8438 120.5,50C 124.707,45.9175 129.207,45.7508 134,49.5C 136.787,54.739 139.287,60.0724 141.5,65.5 Z M 82.5,52.5 C 82.2865,54.1439 82.6198,55.6439 83.5,57C 82.5842,57.2784 81.9175,57.7784 81.5,58.5C 80.5084,58.3284 79.8417,58.6618 79.5,59.5C 76.0922,60.5778 74.0922,62.9111 73.5,66.5C 72.0937,66.9731 71.427,67.9731 71.5,69.5C 69.9519,69.1788 69.2852,68.1788 69.5,66.5C 70.6572,63.7273 71.3239,60.7273 71.5,57.5C 72.6896,55.6455 74.0229,53.8121 75.5,52C 77.9291,51.2967 80.2625,51.4634 82.5,52.5 Z M 137.5,88.5 C 140.385,88.1936 143.052,88.5269 145.5,89.5C 144.599,90.2905 143.932,91.2905 143.5,92.5C 142.094,92.9731 141.427,93.9731 141.5,95.5C 136.278,103.064 130.278,110.064 123.5,116.5C 121.251,117.08 119.585,118.413 118.5,120.5C 118.167,120.5 117.833,120.5 117.5,120.5C 104.093,120.646 90.7596,120.646 77.5,120.5C 74.1924,117.529 70.859,114.529 67.5,111.5C 66.3747,109.871 65.0414,108.371 63.5,107C 64.2524,106.329 64.5858,105.496 64.5,104.5C 65.1667,104.5 65.5,104.167 65.5,103.5C 67.7488,102.92 69.4154,101.587 70.5,99.5C 79.3085,93.0492 88.3085,92.8825 97.5,99C 103.13,99.9664 108.796,100.633 114.5,101C 115.044,101.717 115.711,102.217 116.5,102.5C 115.89,103.391 115.557,104.391 115.5,105.5C 108.214,106.265 100.881,106.765 93.5,107C 92.1667,108.667 92.1667,110.333 93.5,112C 101.52,112.435 109.52,112.101 117.5,111C 120.596,108.971 122.262,106.138 122.5,102.5C 123.833,101.833 124.833,100.833 125.5,99.5C 130.757,97.2451 134.757,93.5784 137.5,88.5 Z M 55.5,107.5 C 60.8333,113.5 66.5,119.167 72.5,124.5C 74.4773,126.814 76.4773,129.147 78.5,131.5C 76.1728,133.161 74.1728,135.161 72.5,137.5C 71.1667,137.167 69.8333,136.833 68.5,136.5C 61.5215,129.187 54.5215,121.854 47.5,114.5C 49.5892,111.405 52.2559,109.071 55.5,107.5 Z"/></g>
<g><path style="opacity:0.604" fill="#1f91c0" d="M 90.5,32.5 C 89.4863,33.6737 88.153,34.3404 86.5,34.5C 87.287,32.8958 88.6203,32.2291 90.5,32.5 Z"/></g>
<g><path style="opacity:0.045" fill="#1f91c0" d="M 123.5,34.5 C 125.38,34.2291 126.713,34.8958 127.5,36.5C 125.847,36.3404 124.514,35.6737 123.5,34.5 Z"/></g>
<g><path style="opacity:0.012" fill="#1f91c0" d="M 111.5,35.5 C 105.464,35.3599 99.4638,35.6932 93.5,36.5C 96.6952,34.9704 100.195,34.3037 104,34.5C 106.69,34.5029 109.19,34.8362 111.5,35.5 Z"/></g>
<g><path style="opacity:0.761" fill="#1f91c0" d="M 84.5,35.5 C 84.0269,36.9063 83.0269,37.573 81.5,37.5C 81.9731,36.0937 82.9731,35.427 84.5,35.5 Z"/></g>
<g><path style="opacity:0.071" fill="#1f91c0" d="M 93.5,36.5 C 92.4863,37.6737 91.153,38.3404 89.5,38.5C 90.287,36.8958 91.6203,36.2291 93.5,36.5 Z"/></g>
<g><path style="opacity:0.847" fill="#1f91c0" d="M 81.5,37.5 C 80.4154,39.5869 78.7488,40.9202 76.5,41.5C 77.5846,39.4131 79.2512,38.0798 81.5,37.5 Z"/></g>
<g><path style="opacity:0.655" fill="#1f91c0" d="M 123.5,39.5 C 126.048,41.0135 125.715,42.0135 122.5,42.5C 123.11,41.609 123.443,40.609 123.5,39.5 Z"/></g>
<g><path style="opacity:0.004" fill="#1f91c0" d="M 133.5,41.5 C 135.5,41.5 136.5,42.5 136.5,44.5C 135.167,43.8333 134.167,42.8333 133.5,41.5 Z"/></g>
<g><path style="opacity:0.031" fill="#1f91c0" d="M 84.5,41.5 C 83.8333,42.8333 82.8333,43.8333 81.5,44.5C 81.5,42.5 82.5,41.5 84.5,41.5 Z"/></g>
<g><path style="opacity:0.58" fill="#1f91c0" d="M 76.5,41.5 C 75.9202,43.7488 74.5869,45.4154 72.5,46.5C 73.0798,44.2512 74.4131,42.5846 76.5,41.5 Z"/></g>
<g><path style="opacity:0.106" fill="#1f91c0" d="M 81.5,44.5 C 81.8333,45.1667 82.1667,45.8333 82.5,46.5C 79.1469,46.6547 78.8136,45.9881 81.5,44.5 Z"/></g>
<g><path style="opacity:0.102" fill="#1f91c0" d="M 82.5,46.5 C 85.3667,46.3692 87.0334,47.7026 87.5,50.5C 85.8089,49.1363 84.1423,47.803 82.5,46.5 Z"/></g>
<g><path style="opacity:0.749" fill="#1f91c0" d="M 116.5,45.5 C 113.373,46.5808 110.04,47.2474 106.5,47.5C 109.507,45.8255 112.84,45.1588 116.5,45.5 Z"/></g>
<g><path style="opacity:0.314" fill="#1f91c0" d="M 138.5,46.5 C 139.906,46.9731 140.573,47.9731 140.5,49.5C 139.094,49.0269 138.427,48.0269 138.5,46.5 Z"/></g>
<g><path style="opacity:0.267" fill="#1f91c0" d="M 70.5,49.5 C 70.573,51.0269 69.9063,52.0269 68.5,52.5C 68.427,50.9731 69.0937,49.9731 70.5,49.5 Z"/></g>
<g><path style="opacity:0.033" fill="#1f91c0" d="M 82.5,52.5 C 83.7384,54.2143 84.405,56.2143 84.5,58.5C 83.5,58.5 82.5,58.5 81.5,58.5C 81.9175,57.7784 82.5842,57.2784 83.5,57C 82.6198,55.6439 82.2865,54.1439 82.5,52.5 Z"/></g>
<g><path style="opacity:0.515" fill="#1f91c0" d="M 87.5,50.5 C 88.2014,53.5629 88.868,56.7296 89.5,60C 88.9341,60.9947 88.2674,61.828 87.5,62.5C 87.5,58.5 87.5,54.5 87.5,50.5 Z"/></g>
<g><path style="opacity:0.054" fill="#1f91c0" d="M 106.5,53.5 C 106.5,54.8333 106.5,56.1667 106.5,57.5C 110.702,57.1832 114.702,57.5166 118.5,58.5C 114.167,58.5 109.833,58.5 105.5,58.5C 105.216,56.5853 105.549,54.9187 106.5,53.5 Z"/></g>
<g><path style="opacity:0.004" fill="#1f91c0" d="M 121.5,59.5 C 123.027,59.427 124.027,60.0937 124.5,61.5C 122.973,61.573 121.973,60.9063 121.5,59.5 Z"/></g>
<g><path style="opacity:0.725" fill="#1f91c0" d="M 66.5,57.5 C 66.5905,60.1522 65.9238,62.4855 64.5,64.5C 64.4095,61.8478 65.0762,59.5145 66.5,57.5 Z"/></g>
<g><path style="opacity:0.561" fill="#1f91c0" d="M 143.5,55.5 C 144.924,57.5145 145.59,59.8478 145.5,62.5C 144.076,60.4855 143.41,58.1522 143.5,55.5 Z"/></g>
<g><path style="opacity:0.431" fill="#1f91c0" d="M 87.5,62.5 C 87.2172,63.2891 86.7172,63.9558 86,64.5C 84.5861,63.5868 83.0861,63.5868 81.5,64.5C 82.9899,62.7202 84.9899,62.0535 87.5,62.5 Z"/></g>
<g><path style="opacity:0.114" fill="#1f91c0" d="M 101.5,62.5 C 106.032,62.1818 110.366,62.5151 114.5,63.5C 110.894,63.2108 107.394,63.5442 104,64.5C 103.005,63.9341 102.172,63.2674 101.5,62.5 Z"/></g>
<g><path style="opacity:0.129" fill="#1f91c0" d="M 79.5,59.5 C 77.4707,61.8585 75.4707,64.1918 73.5,66.5C 74.0922,62.9111 76.0922,60.5778 79.5,59.5 Z"/></g>
<g><path style="opacity:0.275" fill="#1f91c0" d="M 124.5,61.5 C 125.906,61.9731 126.573,62.9731 126.5,64.5C 125.094,64.0269 124.427,63.0269 124.5,61.5 Z"/></g>
<g><path style="opacity:0.014" fill="#1f91c0" d="M 71.5,57.5 C 71.3239,60.7273 70.6572,63.7273 69.5,66.5C 69.2153,63.1709 69.8819,60.1709 71.5,57.5 Z"/></g>
<g><path style="opacity:0.523" fill="#1f91c0" d="M 69.5,66.5 C 69.2852,68.1788 69.9519,69.1788 71.5,69.5C 71.0919,70.6431 70.4252,71.6431 69.5,72.5C 68.2072,70.3635 68.2072,68.3635 69.5,66.5 Z"/></g>
<g><path style="opacity:0.016" fill="#1f91c0" d="M 79.5,66.5 C 79.573,68.0269 78.9063,69.0269 77.5,69.5C 77.427,67.9731 78.0937,66.9731 79.5,66.5 Z"/></g>
<g><path style="opacity:0.525" fill="#1f91c0" d="M 119.5,68.5 C 115.833,68.5 112.167,68.5 108.5,68.5C 112.12,66.1242 115.787,66.1242 119.5,68.5 Z"/></g>
<g><path style="opacity:0.051" fill="#1f91c0" d="M 127.5,65.5 C 130.308,66.8845 133.308,67.5512 136.5,67.5C 138.64,67.4439 140.306,66.7773 141.5,65.5C 142.404,66.209 142.737,67.209 142.5,68.5C 138.486,68.6655 134.486,68.4988 130.5,68C 129.058,67.6232 128.058,66.7899 127.5,65.5 Z"/></g>
<g><path style="opacity:0.141" fill="#1f91c0" d="M 73.5,66.5 C 73.573,68.0269 72.9063,69.0269 71.5,69.5C 71.427,67.9731 72.0937,66.9731 73.5,66.5 Z"/></g>
<g><path style="opacity:1" fill="#1f91c0" d="M 108.5,68.5 C 112.167,68.5 115.833,68.5 119.5,68.5C 120.492,68.3284 121.158,68.6618 121.5,69.5C 121.973,70.9063 122.973,71.573 124.5,71.5C 125.167,71.8333 125.833,72.1667 126.5,72.5C 127.167,73.5 127.833,74.5 128.5,75.5C 128.738,77.4044 129.738,78.7377 131.5,79.5C 133.605,83.9771 132.272,85.8104 127.5,85C 125.864,81.5519 123.864,78.3852 121.5,75.5C 121.027,74.0937 120.027,73.427 118.5,73.5C 114.187,72.9905 110.187,73.6571 106.5,75.5C 105.527,77.9479 105.194,80.6146 105.5,83.5C 108.237,83.4013 110.904,83.7347 113.5,84.5C 113.738,86.4044 114.738,87.7377 116.5,88.5C 117.833,89.5 117.833,90.5 116.5,91.5C 113.962,90.9573 111.628,89.9573 109.5,88.5C 107.152,86.9028 104.486,85.9028 101.5,85.5C 98.7141,80.9812 99.0474,76.6479 102.5,72.5C 104.404,72.2624 105.738,71.2624 106.5,69.5C 106.842,68.6618 107.508,68.3284 108.5,68.5 Z"/></g>
<g><path style="opacity:0.008" fill="#1f91c0" d="M 121.5,69.5 C 123.027,69.427 124.027,70.0937 124.5,71.5C 122.973,71.573 121.973,70.9063 121.5,69.5 Z"/></g>
<g><path style="opacity:0.722" fill="#1f91c0" d="M 106.5,69.5 C 105.738,71.2624 104.404,72.2624 102.5,72.5C 103.262,70.7376 104.596,69.7376 106.5,69.5 Z"/></g>
<g><path style="opacity:1" fill="#1f91c0" d="M 85.5,86.5 C 84.8333,87.1667 84.1667,87.8333 83.5,88.5C 80.8687,87.5755 80.2021,85.9088 81.5,83.5C 82.3029,82.5768 82.4696,81.5768 82,80.5C 81.0471,78.6269 79.8804,78.2935 78.5,79.5C 75.7742,81.3011 74.1076,80.6344 73.5,77.5C 77.8661,70.8601 82.3661,70.8601 87,77.5C 89.199,81.0217 88.699,84.0217 85.5,86.5 Z"/></g>
<g><path style="opacity:0.31" fill="#1f91c0" d="M 118.5,73.5 C 120.027,73.427 121.027,74.0937 121.5,75.5C 119.973,75.573 118.973,74.9063 118.5,73.5 Z"/></g>
<g><path style="opacity:0.718" fill="#1f91c0" d="M 128.5,75.5 C 130.262,76.2623 131.262,77.5956 131.5,79.5C 129.738,78.7377 128.738,77.4044 128.5,75.5 Z"/></g>
<g><path style="opacity:0.041" fill="#1f91c0" d="M 64.5,75.5 C 65.7682,77.9052 66.4349,80.5718 66.5,83.5C 64.9605,81.1617 64.2938,78.4951 64.5,75.5 Z"/></g>
<g><path style="opacity:0.298" fill="#1f91c0" d="M 73.5,77.5 C 74.1076,80.6344 75.7742,81.3011 78.5,79.5C 77.8549,80.8118 76.8549,81.8118 75.5,82.5C 72.7968,81.374 72.1301,79.7073 73.5,77.5 Z"/></g>
<g><path style="opacity:0.2" fill="#1f91c0" d="M 141.5,75.5 C 141.834,78.491 140.834,80.8243 138.5,82.5C 139.264,79.9823 140.264,77.649 141.5,75.5 Z"/></g>
<g><path style="opacity:0.58" fill="#1f91c0" d="M 106.5,75.5 C 106.5,77.8333 106.5,80.1667 106.5,82.5C 108.527,82.3379 110.527,82.5045 112.5,83C 113.056,83.3826 113.389,83.8826 113.5,84.5C 110.904,83.7347 108.237,83.4013 105.5,83.5C 105.194,80.6146 105.527,77.9479 106.5,75.5 Z"/></g>
<g><path style="opacity:0.063" fill="#1f91c0" d="M 138.5,82.5 C 137.341,84.2503 135.674,85.2503 133.5,85.5C 134.659,83.7497 136.326,82.7497 138.5,82.5 Z"/></g>
<g><path style="opacity:0.78" fill="#1f91c0" d="M 113.5,84.5 C 115.262,85.2623 116.262,86.5956 116.5,88.5C 114.738,87.7377 113.738,86.4044 113.5,84.5 Z"/></g>
<g><path style="opacity:0.075" fill="#1f91c0" d="M 149.5,84.5 C 151.597,85.8786 151.93,87.5453 150.5,89.5C 150.371,87.7839 150.038,86.1172 149.5,84.5 Z"/></g>
<g><path style="opacity:0.098" fill="#1f91c0" d="M 101.5,85.5 C 104.486,85.9028 107.152,86.9028 109.5,88.5C 106.284,88.6545 103.617,87.6545 101.5,85.5 Z"/></g>
<g><path style="opacity:0.06" fill="#1f91c0" d="M 137.5,88.5 C 140.355,87.1968 143.355,87.1968 146.5,88.5C 146.376,89.1067 146.043,89.44 145.5,89.5C 143.052,88.5269 140.385,88.1936 137.5,88.5 Z"/></g>
<g><path style="opacity:0.086" fill="#1f91c0" d="M 85.5,86.5 C 85.7822,87.7777 86.4489,88.7777 87.5,89.5C 86.1667,89.5 84.8333,89.5 83.5,89.5C 83.5,89.1667 83.5,88.8333 83.5,88.5C 84.1667,87.8333 84.8333,87.1667 85.5,86.5 Z"/></g>
<g><path style="opacity:0.041" fill="#1f91c0" d="M 68.5,89.5 C 71.1667,90.8333 71.1667,92.1667 68.5,93.5C 68.5,92.1667 68.5,90.8333 68.5,89.5 Z"/></g>
<g><path style="opacity:0.6" fill="#1f91c0" d="M 81.5,83.5 C 80.2021,85.9088 80.8687,87.5755 83.5,88.5C 83.5,88.8333 83.5,89.1667 83.5,89.5C 82.036,90.1599 80.3693,90.4932 78.5,90.5C 76.3603,90.4439 74.6936,89.7773 73.5,88.5C 75.9606,89.9735 78.294,89.8068 80.5,88C 78.9632,86.8904 78.2965,85.3904 78.5,83.5C 79.5,83.5 80.5,83.5 81.5,83.5 Z"/></g>
<g><path style="opacity:0.084" fill="#1f91c0" d="M 109.5,88.5 C 111.628,89.9573 113.962,90.9573 116.5,91.5C 113.312,93.0563 110.979,92.0563 109.5,88.5 Z"/></g>
<g><path style="opacity:0.482" fill="#1f91c0" d="M 127.5,91.5 C 126.738,93.2624 125.404,94.2624 123.5,94.5C 124.262,92.7376 125.596,91.7376 127.5,91.5 Z"/></g>
<g><path style="opacity:0.09" fill="#1f91c0" d="M 150.5,89.5 C 150.771,91.3797 150.104,92.713 148.5,93.5C 148.66,91.847 149.326,90.5137 150.5,89.5 Z"/></g>
<g><path style="opacity:0.353" fill="#1f91c0" d="M 143.5,92.5 C 143.573,94.0269 142.906,95.0269 141.5,95.5C 141.427,93.9731 142.094,92.9731 143.5,92.5 Z"/></g>
<g><path style="opacity:0.071" fill="#1f91c0" d="M 123.5,94.5 C 122.508,96.0265 121.008,96.6932 119,96.5C 117.615,96.4857 116.449,96.1524 115.5,95.5C 118.237,95.5987 120.904,95.2653 123.5,94.5 Z"/></g>
<g><path style="opacity:0.808" fill="#1f91c0" d="M 55.5,100.5 C 54.609,101.11 53.609,101.443 52.5,101.5C 53.221,99.6182 54.221,99.2848 55.5,100.5 Z"/></g>
<g><path style="opacity:0.424" fill="#1f91c0" d="M 64.5,97.5 C 63.9202,99.7488 62.5869,101.415 60.5,102.5C 61.0798,100.251 62.4131,98.5846 64.5,97.5 Z"/></g>
<g><path style="opacity:0.027" fill="#1f91c0" d="M 125.5,99.5 C 124.833,100.833 123.833,101.833 122.5,102.5C 122.5,100.5 123.5,99.5 125.5,99.5 Z"/></g>
<g><path style="opacity:0.004" fill="#1f91c0" d="M 70.5,99.5 C 69.4154,101.587 67.7488,102.92 65.5,103.5C 66.5846,101.413 68.2512,100.08 70.5,99.5 Z"/></g>
<g><path style="opacity:0.678" fill="#1f91c0" d="M 116.5,102.5 C 117.715,103.779 117.382,104.779 115.5,105.5C 115.557,104.391 115.89,103.391 116.5,102.5 Z"/></g>
<g><path style="opacity:0.549" fill="#1f91c0" d="M 52.5,101.5 C 49.1667,105.5 45.5,109.167 41.5,112.5C 44.1667,107.833 47.8333,104.167 52.5,101.5 Z"/></g>
<g><path style="opacity:0.004" fill="#1f91c0" d="M 64.5,104.5 C 64.5858,105.496 64.2524,106.329 63.5,107C 65.0414,108.371 66.3747,109.871 67.5,111.5C 64.2135,110.727 62.7135,108.727 63,105.5C 63.3826,104.944 63.8826,104.611 64.5,104.5 Z"/></g>
<g><path style="opacity:0.537" fill="#1f91c0" d="M 55.5,107.5 C 62.1667,112.167 67.8333,117.833 72.5,124.5C 66.5,119.167 60.8333,113.5 55.5,107.5 Z"/></g>
<g><path style="opacity:0.004" fill="#1f91c0" d="M 138.5,107.5 C 138.573,109.027 137.906,110.027 136.5,110.5C 136.427,108.973 137.094,107.973 138.5,107.5 Z"/></g>
<g><path style="opacity:0.357" fill="#1f91c0" d="M 56.5,112.5 C 55.5,113.833 54.5,115.167 53.5,116.5C 52.6679,114.275 53.6679,112.942 56.5,112.5 Z"/></g>
<g><path style="opacity:0.991" fill="#1f91c0" d="M 56.5,112.5 C 58.5311,113.539 59.8645,115.205 60.5,117.5C 59.3951,118.6 58.0618,119.267 56.5,119.5C 55.1667,118.833 54.1667,117.833 53.5,116.5C 54.5,115.167 55.5,113.833 56.5,112.5 Z"/></g>
<g><path style="opacity:0.086" fill="#1f91c0" d="M 60.5,117.5 C 60.0423,120.309 58.7089,120.976 56.5,119.5C 58.0618,119.267 59.3951,118.6 60.5,117.5 Z"/></g>
<g><path style="opacity:0.91" fill="#1f91c0" d="M 123.5,116.5 C 122.415,118.587 120.749,119.92 118.5,120.5C 119.585,118.413 121.251,117.08 123.5,116.5 Z"/></g>
<g><path style="opacity:0.016" fill="#1f91c0" d="M 128.5,118.5 C 127.738,120.262 126.404,121.262 124.5,121.5C 125.262,119.738 126.596,118.738 128.5,118.5 Z"/></g>
<g><path style="opacity:0.702" fill="#1f91c0" d="M 77.5,120.5 C 90.7596,120.646 104.093,120.646 117.5,120.5C 105.824,121.239 93.9909,121.905 82,122.5C 79.9919,122.693 78.4919,122.026 77.5,120.5 Z"/></g>
<g><path style="opacity:0.063" fill="#1f91c0" d="M 118.5,125.5 C 106.833,126.167 95.1667,126.833 83.5,127.5C 82.7109,127.217 82.0442,126.717 81.5,126C 93.8288,125.5 106.162,125.333 118.5,125.5 Z"/></g>
<g><path style="opacity:0.192" fill="#1f91c0" d="M 68.5,136.5 C 69.8333,136.833 71.1667,137.167 72.5,137.5C 70.8716,138.853 69.5383,138.519 68.5,136.5 Z"/></g>
</svg>
