<?xml version="1.0" encoding="UTF-8"?>
<!DOCTYPE svg PUBLIC "-//W3C//DTD SVG 1.1//EN" "http://www.w3.org/Graphics/SVG/1.1/DTD/svg11.dtd">
<svg xmlns="http://www.w3.org/2000/svg" version="1.1" width="197px" height="173px" style="shape-rendering:geometricPrecision; text-rendering:geometricPrecision; image-rendering:optimizeQuality; fill-rule:evenodd; clip-rule:evenodd" xmlns:xlink="http://www.w3.org/1999/xlink">
<g><path style="opacity:0.998" fill="#1f91c0" d="M 71.5,39.5 C 71.9731,40.9063 72.9731,41.573 74.5,41.5C 78.1513,42.6589 81.4846,44.3256 84.5,46.5C 84.9731,47.9063 85.9731,48.573 87.5,48.5C 100.97,55.4019 114.304,62.5686 127.5,70C 129,70.5 130.5,71 132,71.5C 133.582,69.9712 135.415,69.4712 137.5,70C 141.732,72.2746 145.732,74.7746 149.5,77.5C 149.973,78.9063 150.973,79.573 152.5,79.5C 153.833,79.5 154.5,80.1667 154.5,81.5C 154.74,87.227 154.407,92.8936 153.5,98.5C 151.151,100.341 148.485,101.674 145.5,102.5C 144.504,102.414 143.671,102.748 143,103.5C 142.175,114.341 142.341,125.008 143.5,135.5C 144.833,135.5 146.167,135.5 147.5,135.5C 146.828,132.092 147.828,129.425 150.5,127.5C 151.107,127.624 151.44,127.957 151.5,128.5C 151.337,130.857 151.503,133.19 152,135.5C 152.383,136.056 152.883,136.389 153.5,136.5C 153.5,137.5 153.5,138.5 153.5,139.5C 116.336,140.664 79.0023,140.831 41.5,140C 39.8388,136.85 40.8388,135.35 44.5,135.5C 45.2216,135.082 45.7216,134.416 46,133.5C 46.498,130.518 46.6646,127.518 46.5,124.5C 45.9694,121.112 47.3027,119.112 50.5,118.5C 51.8323,107.186 52.499,95.5197 52.5,83.5C 52.4999,71.6618 52.1665,59.9952 51.5,48.5C 49.6316,47.7368 47.9649,46.7368 46.5,45.5C 46.5,43.5 46.5,41.5 46.5,39.5C 46.5,39.1667 46.5,38.8333 46.5,38.5C 47.9238,36.4855 48.5905,34.1522 48.5,31.5C 48.7218,28.9236 50.0551,28.0902 52.5,29C 58.8955,32.5279 65.2288,36.0279 71.5,39.5 Z M 54.5,35.5 C 54.9731,36.9063 55.9731,37.573 57.5,37.5C 58.5137,38.6737 59.847,39.3404 61.5,39.5C 61.9731,40.9063 62.9731,41.573 64.5,41.5C 67.5154,43.6744 70.8487,45.3411 74.5,46.5C 74.9731,47.9063 75.9731,48.573 77.5,48.5C 79.1815,50.0075 81.1815,51.0075 83.5,51.5C 83.9731,52.9063 84.9731,53.573 86.5,53.5C 88.8485,55.341 91.5152,56.6743 94.5,57.5C 94.9731,58.9063 95.9731,59.573 97.5,59.5C 100.515,61.6744 103.849,63.3411 107.5,64.5C 107.973,65.9063 108.973,66.573 110.5,66.5C 113.515,68.6744 116.849,70.3411 120.5,71.5C 120.973,72.9063 121.973,73.573 123.5,73.5C 124.514,74.6737 125.847,75.3404 127.5,75.5C 128.234,76.7079 128.567,78.0413 128.5,79.5C 127.356,81.1002 126.189,82.7669 125,84.5C 122.842,82.5056 120.342,81.1723 117.5,80.5C 117.027,79.0937 116.027,78.427 114.5,78.5C 96.3014,67.9014 77.9681,57.5681 59.5,47.5C 58.7095,46.5987 57.7095,45.9321 56.5,45.5C 55.4863,44.3263 54.153,43.6596 52.5,43.5C 52.1667,42.5 51.5,41.8333 50.5,41.5C 51.1495,39.5648 51.4828,37.5648 51.5,35.5C 52.5,35.5 53.5,35.5 54.5,35.5 Z M 62.5,54.5 C 62.9731,55.9063 63.9731,56.573 65.5,56.5C 68.5154,58.6744 71.8487,60.3411 75.5,61.5C 75.9731,62.9063 76.9731,63.573 78.5,63.5C 78.9129,77.0185 77.5796,90.3519 74.5,103.5C 72.9605,105.838 72.2938,108.505 72.5,111.5C 71.0762,113.515 70.4095,115.848 70.5,118.5C 70.5,118.833 70.5,119.167 70.5,119.5C 69.2318,121.905 68.5651,124.572 68.5,127.5C 68.3568,130.097 67.5234,132.431 66,134.5C 65.1293,129.488 64.296,124.488 63.5,119.5C 61.0339,118.877 58.7006,118.043 56.5,117C 57.8125,96.386 57.8125,75.7193 56.5,55C 56.8333,54.1667 57.1667,53.3333 57.5,52.5C 59.0754,53.4565 60.742,54.1231 62.5,54.5 Z M 85.5,67.5 C 85.8417,68.3382 86.5084,68.6716 87.5,68.5C 87.9731,69.9063 88.9731,70.573 90.5,70.5C 91.5137,71.6737 92.847,72.3404 94.5,72.5C 94.9731,73.9063 95.9731,74.573 97.5,74.5C 99.539,75.911 100.539,77.911 100.5,80.5C 94.9252,81.4524 89.2586,81.7857 83.5,81.5C 82.8969,76.3814 83.5636,71.7147 85.5,67.5 Z M 138.5,76.5 C 138.973,77.9063 139.973,78.573 141.5,78.5C 142.514,79.6737 143.847,80.3404 145.5,80.5C 145.973,81.9063 146.973,82.573 148.5,82.5C 150.086,87.3743 149.753,92.0409 147.5,96.5C 145.181,96.9925 143.181,97.9925 141.5,99.5C 140.167,99.1667 138.833,98.8333 137.5,98.5C 137.158,97.6618 136.492,97.3284 135.5,97.5C 135.027,96.0937 134.027,95.427 132.5,95.5C 131.035,94.2632 129.368,93.2632 127.5,92.5C 128.441,90.9505 129.107,89.2838 129.5,87.5C 131.863,84.4512 133.863,81.1178 135.5,77.5C 136.391,76.8902 137.391,76.5569 138.5,76.5 Z M 106.5,79.5 C 107.605,80.6005 108.938,81.2671 110.5,81.5C 110.973,82.9063 111.973,83.573 113.5,83.5C 114.514,84.6737 115.847,85.3404 117.5,85.5C 117.973,86.9063 118.973,87.573 120.5,87.5C 121.234,88.7079 121.567,90.0413 121.5,91.5C 120.167,92.5 120.167,93.5 121.5,94.5C 121.973,95.9063 122.973,96.573 124.5,96.5C 124.842,97.3382 125.508,97.6716 126.5,97.5C 126.973,98.9063 127.973,99.573 129.5,99.5C 129.842,100.338 130.508,100.672 131.5,100.5C 131.973,101.906 132.973,102.573 134.5,102.5C 135.29,103.401 136.29,104.068 137.5,104.5C 137.808,114.915 137.475,125.249 136.5,135.5C 135.5,135.5 134.5,135.5 133.5,135.5C 134.172,132.092 133.172,129.425 130.5,127.5C 129.155,128.347 128.155,129.513 127.5,131C 128.833,132.333 128.833,133.667 127.5,135C 124.183,135.498 120.85,135.665 117.5,135.5C 116.64,132.368 115.64,129.368 114.5,126.5C 113.608,119.951 112.275,113.618 110.5,107.5C 110.435,104.572 109.768,101.905 108.5,99.5C 108.5,99.1667 108.5,98.8333 108.5,98.5C 108.435,95.5718 107.768,92.9052 106.5,90.5C 106.784,88.5853 106.451,86.9187 105.5,85.5C 105.205,83.2646 105.539,81.2646 106.5,79.5 Z M 87.5,88.5 C 90.5,87.1667 93.5,87.1667 96.5,88.5C 95.5,88.8333 94.8333,89.5 94.5,90.5C 93.1667,90.8333 91.8333,91.1667 90.5,91.5C 89.8333,90.1667 88.8333,89.1667 87.5,88.5 Z M 81.5,91.5 C 82.1667,91.5 82.8333,91.5 83.5,91.5C 84.8333,93.1667 86.1667,94.8333 87.5,96.5C 86.5,96.8333 85.8333,97.5 85.5,98.5C 83.5,98.5 82.5,99.5 82.5,101.5C 81.391,101.557 80.391,101.89 79.5,102.5C 80.5828,98.9155 81.2494,95.2488 81.5,91.5 Z M 99.5,91.5 C 101.562,93.3613 102.895,95.6947 103.5,98.5C 103.5,98.8333 103.5,99.1667 103.5,99.5C 103.737,100.791 103.404,101.791 102.5,102.5C 100.523,100.186 98.5227,97.8528 96.5,95.5C 97.5244,94.1482 98.5244,92.8149 99.5,91.5 Z M 93.5,100.5 C 94.5846,102.587 96.2512,103.92 98.5,104.5C 99.8333,106.5 101.5,108.167 103.5,109.5C 103.5,110.167 103.5,110.833 103.5,111.5C 99.8537,114.327 95.8537,116.661 91.5,118.5C 87.5063,116.177 83.5063,113.843 79.5,111.5C 79.8333,110.833 80.1667,110.167 80.5,109.5C 84.1659,106.003 87.9992,102.669 92,99.5C 92.3826,100.056 92.8826,100.389 93.5,100.5 Z M 75.5,116.5 C 76.5,116.5 77.5,116.5 78.5,116.5C 78.8417,117.338 79.5084,117.672 80.5,117.5C 80.9731,118.906 81.9731,119.573 83.5,119.5C 83.9731,120.906 84.9731,121.573 86.5,121.5C 86.5858,122.496 86.2524,123.329 85.5,124C 81.3318,126.25 77.3318,128.75 73.5,131.5C 73.1667,131.167 72.8333,130.833 72.5,130.5C 74.4504,126.032 75.4504,121.366 75.5,116.5 Z M 104.5,116.5 C 106.199,116.527 107.533,117.194 108.5,118.5C 108.411,122.3 109.078,125.966 110.5,129.5C 110.167,130.167 109.833,130.833 109.5,131.5C 105.754,128.415 101.754,125.749 97.5,123.5C 97.5,122.833 97.5,122.167 97.5,121.5C 100.135,120.189 102.469,118.522 104.5,116.5 Z M 60.5,129.5 C 60.5,131.5 60.5,133.5 60.5,135.5C 57.2689,134.819 53.9356,134.652 50.5,135C 50.1727,132.315 50.1727,129.482 50.5,126.5C 51.404,125.791 51.7373,124.791 51.5,123.5C 53.8568,123.337 56.1902,123.503 58.5,124C 59.1094,125.948 59.776,127.782 60.5,129.5 Z M 95.5,127.5 C 95.9731,128.906 96.9731,129.573 98.5,129.5C 98.9731,130.906 99.9731,131.573 101.5,131.5C 101.973,132.906 102.973,133.573 104.5,133.5C 104.611,134.117 104.944,134.617 105.5,135C 102.5,135.167 99.5,135.333 96.5,135.5C 90.2847,134.726 84.2847,134.393 78.5,134.5C 82.1008,132.023 85.7674,129.523 89.5,127C 91.5454,126.51 93.5454,126.677 95.5,127.5 Z"/></g>
<g><path style="opacity:0.29" fill="#1f91c0" d="M 54.5,35.5 C 56.0269,35.427 57.0269,36.0937 57.5,37.5C 55.9731,37.573 54.9731,36.9063 54.5,35.5 Z"/></g>
<g><path style="opacity:0.584" fill="#1f91c0" d="M 48.5,31.5 C 48.5905,34.1522 47.9238,36.4855 46.5,38.5C 46.4095,35.8478 47.0762,33.5145 48.5,31.5 Z"/></g>
<g><path style="opacity:0.094" fill="#1f91c0" d="M 71.5,39.5 C 73.0269,39.427 74.0269,40.0937 74.5,41.5C 72.9731,41.573 71.9731,40.9063 71.5,39.5 Z"/></g>
<g><path style="opacity:0.137" fill="#1f91c0" d="M 61.5,39.5 C 63.0269,39.427 64.0269,40.0937 64.5,41.5C 62.9731,41.573 61.9731,40.9063 61.5,39.5 Z"/></g>
<g><path style="opacity:0.773" fill="#1f91c0" d="M 46.5,39.5 C 46.5,41.5 46.5,43.5 46.5,45.5C 44.0062,43.594 44.0062,41.594 46.5,39.5 Z"/></g>
<g><path style="opacity:0.459" fill="#1f91c0" d="M 50.5,41.5 C 51.5,41.8333 52.1667,42.5 52.5,43.5C 51.1667,43.5 50.5,42.8333 50.5,41.5 Z"/></g>
<g><path style="opacity:0.922" fill="#1f91c0" d="M 56.5,45.5 C 57.7095,45.9321 58.7095,46.5987 59.5,47.5C 57.8212,47.7148 56.8212,47.0481 56.5,45.5 Z"/></g>
<g><path style="opacity:0.067" fill="#1f91c0" d="M 84.5,46.5 C 86.0269,46.427 87.0269,47.0937 87.5,48.5C 85.9731,48.573 84.9731,47.9063 84.5,46.5 Z"/></g>
<g><path style="opacity:0.231" fill="#1f91c0" d="M 74.5,46.5 C 76.0269,46.427 77.0269,47.0937 77.5,48.5C 75.9731,48.573 74.9731,47.9063 74.5,46.5 Z"/></g>
<g><path style="opacity:0.078" fill="#1f91c0" d="M 83.5,51.5 C 85.0269,51.427 86.0269,52.0937 86.5,53.5C 84.9731,53.573 83.9731,52.9063 83.5,51.5 Z"/></g>
<g><path style="opacity:0.092" fill="#1f91c0" d="M 62.5,54.5 C 64.0269,54.427 65.0269,55.0937 65.5,56.5C 63.9731,56.573 62.9731,55.9063 62.5,54.5 Z"/></g>
<g><path style="opacity:0.073" fill="#1f91c0" d="M 94.5,57.5 C 96.0269,57.427 97.0269,58.0937 97.5,59.5C 95.9731,59.573 94.9731,58.9063 94.5,57.5 Z"/></g>
<g><path style="opacity:0.396" fill="#1f91c0" d="M 75.5,61.5 C 77.0269,61.427 78.0269,62.0937 78.5,63.5C 76.9731,63.573 75.9731,62.9063 75.5,61.5 Z"/></g>
<g><path style="opacity:0.08" fill="#1f91c0" d="M 107.5,64.5 C 109.027,64.427 110.027,65.0937 110.5,66.5C 108.973,66.573 107.973,65.9063 107.5,64.5 Z"/></g>
<g><path style="opacity:0.396" fill="#1f91c0" d="M 85.5,67.5 C 83.5636,71.7147 82.8969,76.3814 83.5,81.5C 83.5,81.8333 83.5,82.1667 83.5,82.5C 82.5119,77.3595 82.1786,72.0262 82.5,66.5C 83.791,66.2627 84.791,66.596 85.5,67.5 Z"/></g>
<g><path style="opacity:0.333" fill="#1f91c0" d="M 87.5,68.5 C 89.0269,68.427 90.0269,69.0937 90.5,70.5C 88.9731,70.573 87.9731,69.9063 87.5,68.5 Z"/></g>
<g><path style="opacity:0.159" fill="#1f91c0" d="M 51.5,48.5 C 52.1665,59.9952 52.4999,71.6618 52.5,83.5C 52.499,95.5197 51.8323,107.186 50.5,118.5C 51.4892,95.2416 51.8226,71.9082 51.5,48.5 Z"/></g>
<g><path style="opacity:0.176" fill="#1f91c0" d="M 120.5,71.5 C 122.027,71.427 123.027,72.0937 123.5,73.5C 121.973,73.573 120.973,72.9063 120.5,71.5 Z"/></g>
<g><path style="opacity:0.333" fill="#1f91c0" d="M 94.5,72.5 C 96.0269,72.427 97.0269,73.0937 97.5,74.5C 95.9731,74.573 94.9731,73.9063 94.5,72.5 Z"/></g>
<g><path style="opacity:0.012" fill="#1f91c0" d="M 138.5,76.5 C 137.391,76.5569 136.391,76.8902 135.5,77.5C 136.053,75.4482 137.053,75.1148 138.5,76.5 Z"/></g>
<g><path style="opacity:0.027" fill="#1f91c0" d="M 127.5,75.5 C 131.12,76.1031 131.453,77.4365 128.5,79.5C 128.567,78.0413 128.234,76.7079 127.5,75.5 Z"/></g>
<g><path style="opacity:0.208" fill="#1f91c0" d="M 138.5,76.5 C 140.027,76.427 141.027,77.0937 141.5,78.5C 139.973,78.573 138.973,77.9063 138.5,76.5 Z"/></g>
<g><path style="opacity:0.012" fill="#1f91c0" d="M 149.5,77.5 C 151.027,77.427 152.027,78.0937 152.5,79.5C 150.973,79.573 149.973,78.9063 149.5,77.5 Z"/></g>
<g><path style="opacity:0.067" fill="#1f91c0" d="M 114.5,78.5 C 116.027,78.427 117.027,79.0937 117.5,80.5C 115.973,80.573 114.973,79.9063 114.5,78.5 Z"/></g>
<g><path style="opacity:0.118" fill="#1f91c0" d="M 106.5,79.5 C 105.539,81.2646 105.205,83.2646 105.5,85.5C 104.203,83.3066 104.203,80.9732 105.5,78.5C 106.107,78.6236 106.44,78.9569 106.5,79.5 Z"/></g>
<g><path style="opacity:0.114" fill="#1f91c0" d="M 100.5,80.5 C 95.2649,82.45 89.5982,83.1167 83.5,82.5C 83.5,82.1667 83.5,81.8333 83.5,81.5C 89.2586,81.7857 94.9252,81.4524 100.5,80.5 Z"/></g>
<g><path style="opacity:0.333" fill="#1f91c0" d="M 145.5,80.5 C 147.027,80.427 148.027,81.0937 148.5,82.5C 146.973,82.573 145.973,81.9063 145.5,80.5 Z"/></g>
<g><path style="opacity:0.112" fill="#1f91c0" d="M 154.5,81.5 C 155.651,86.6503 155.817,91.9836 155,97.5C 154.617,98.056 154.117,98.3893 153.5,98.5C 154.407,92.8936 154.74,87.227 154.5,81.5 Z"/></g>
<g><path style="opacity:0.286" fill="#1f91c0" d="M 110.5,81.5 C 112.027,81.427 113.027,82.0937 113.5,83.5C 111.973,83.573 110.973,82.9063 110.5,81.5 Z"/></g>
<g><path style="opacity:0.069" fill="#1f91c0" d="M 96.5,88.5 C 93.5,87.1667 90.5,87.1667 87.5,88.5C 86.7109,88.2172 86.0442,87.7172 85.5,87C 89.8333,86.3333 94.1667,86.3333 98.5,87C 97.9558,87.7172 97.2891,88.2172 96.5,88.5 Z"/></g>
<g><path style="opacity:0.357" fill="#1f91c0" d="M 117.5,85.5 C 119.027,85.427 120.027,86.0937 120.5,87.5C 118.973,87.573 117.973,86.9063 117.5,85.5 Z"/></g>
<g><path style="opacity:0.089" fill="#1f91c0" d="M 148.5,82.5 C 149.8,84.223 150.467,86.3897 150.5,89C 150.333,91.1667 150.167,93.3333 150,95.5C 149.329,96.2524 148.496,96.5858 147.5,96.5C 149.753,92.0409 150.086,87.3743 148.5,82.5 Z"/></g>
<g><path style="opacity:0.035" fill="#1f91c0" d="M 120.5,87.5 C 124.12,88.1031 124.453,89.4365 121.5,91.5C 121.567,90.0413 121.234,88.7079 120.5,87.5 Z"/></g>
<g><path style="opacity:0.106" fill="#1f91c0" d="M 83.5,91.5 C 82.8333,91.5 82.1667,91.5 81.5,91.5C 81.7856,89.0673 82.4523,89.0673 83.5,91.5 Z"/></g>
<g><path style="opacity:0.063" fill="#1f91c0" d="M 103.5,98.5 C 102.895,95.6947 101.562,93.3613 99.5,91.5C 99.811,90.5222 100.478,89.8555 101.5,89.5C 102.932,92.3273 103.599,95.3273 103.5,98.5 Z"/></g>
<g><path style="opacity:0.004" fill="#1f91c0" d="M 129.5,87.5 C 129.107,89.2838 128.441,90.9505 127.5,92.5C 126.651,90.4899 127.318,88.8233 129.5,87.5 Z"/></g>
<g><path style="opacity:0.655" fill="#1f91c0" d="M 83.5,91.5 C 86.6263,92.2385 87.9597,93.9051 87.5,96.5C 86.1667,94.8333 84.8333,93.1667 83.5,91.5 Z"/></g>
<g><path style="opacity:0.106" fill="#1f91c0" d="M 94.5,90.5 C 93.4617,92.5195 92.1284,92.8528 90.5,91.5C 91.8333,91.1667 93.1667,90.8333 94.5,90.5 Z"/></g>
<g><path style="opacity:0.058" fill="#1f91c0" d="M 106.5,90.5 C 107.768,92.9052 108.435,95.5718 108.5,98.5C 106.96,96.1617 106.294,93.4951 106.5,90.5 Z"/></g>
<g><path style="opacity:0.278" fill="#1f91c0" d="M 121.5,94.5 C 123.027,94.427 124.027,95.0937 124.5,96.5C 122.973,96.573 121.973,95.9063 121.5,94.5 Z"/></g>
<g><path style="opacity:0.069" fill="#1f91c0" d="M 132.5,95.5 C 134.027,95.427 135.027,96.0937 135.5,97.5C 133.973,97.573 132.973,96.9063 132.5,95.5 Z"/></g>
<g><path style="opacity:0.255" fill="#1f91c0" d="M 126.5,97.5 C 128.027,97.427 129.027,98.0937 129.5,99.5C 127.973,99.573 126.973,98.9063 126.5,97.5 Z"/></g>
<g><path style="opacity:0.451" fill="#1f91c0" d="M 85.5,98.5 C 84.8333,99.8333 83.8333,100.833 82.5,101.5C 82.5,99.5 83.5,98.5 85.5,98.5 Z"/></g>
<g><path style="opacity:0.2" fill="#1f91c0" d="M 137.5,98.5 C 138.833,98.8333 140.167,99.1667 141.5,99.5C 139.872,100.853 138.538,100.519 137.5,98.5 Z"/></g>
<g><path style="opacity:0.82" fill="#1f91c0" d="M 93.5,100.5 C 95.7488,101.08 97.4154,102.413 98.5,104.5C 96.2512,103.92 94.5846,102.587 93.5,100.5 Z"/></g>
<g><path style="opacity:0.239" fill="#1f91c0" d="M 131.5,100.5 C 133.027,100.427 134.027,101.094 134.5,102.5C 132.973,102.573 131.973,101.906 131.5,100.5 Z"/></g>
<g><path style="opacity:0.098" fill="#1f91c0" d="M 82.5,101.5 C 82.3893,102.117 82.056,102.617 81.5,103C 79.6493,103.703 78.9826,103.537 79.5,102.5C 80.391,101.89 81.391,101.557 82.5,101.5 Z"/></g>
<g><path style="opacity:0.114" fill="#1f91c0" d="M 103.5,99.5 C 104.782,100.708 104.782,102.042 103.5,103.5C 102.893,103.376 102.56,103.043 102.5,102.5C 103.404,101.791 103.737,100.791 103.5,99.5 Z"/></g>
<g><path style="opacity:0.09" fill="#1f91c0" d="M 108.5,99.5 C 109.768,101.905 110.435,104.572 110.5,107.5C 108.96,105.162 108.294,102.495 108.5,99.5 Z"/></g>
<g><path style="opacity:0.068" fill="#1f91c0" d="M 145.5,102.5 C 145.217,103.289 144.717,103.956 144,104.5C 143.5,114.828 143.334,125.161 143.5,135.5C 142.341,125.008 142.175,114.341 143,103.5C 143.671,102.748 144.504,102.414 145.5,102.5 Z"/></g>
<g><path style="opacity:0.863" fill="#1f91c0" d="M 74.5,103.5 C 74.4349,106.428 73.7682,109.095 72.5,111.5C 72.2938,108.505 72.9605,105.838 74.5,103.5 Z"/></g>
<g><path style="opacity:0.09" fill="#1f91c0" d="M 80.5,109.5 C 80.1667,110.167 79.8333,110.833 79.5,111.5C 78.2426,110.377 78.5759,109.711 80.5,109.5 Z"/></g>
<g><path style="opacity:0.047" fill="#1f91c0" d="M 103.5,109.5 C 105.933,110.548 105.933,111.214 103.5,111.5C 103.5,110.833 103.5,110.167 103.5,109.5 Z"/></g>
<g><path style="opacity:0.675" fill="#1f91c0" d="M 72.5,111.5 C 72.5905,114.152 71.9238,116.485 70.5,118.5C 70.4095,115.848 71.0762,113.515 72.5,111.5 Z"/></g>
<g><path style="opacity:0.043" fill="#1f91c0" d="M 78.5,116.5 C 77.5,116.5 76.5,116.5 75.5,116.5C 76.2601,114.015 77.2601,114.015 78.5,116.5 Z"/></g>
<g><path style="opacity:0.067" fill="#1f91c0" d="M 108.5,118.5 C 107.533,117.194 106.199,116.527 104.5,116.5C 107.091,113.705 108.425,114.372 108.5,118.5 Z"/></g>
<g><path style="opacity:0.455" fill="#1f91c0" d="M 80.5,117.5 C 82.0269,117.427 83.0269,118.094 83.5,119.5C 81.9731,119.573 80.9731,118.906 80.5,117.5 Z"/></g>
<g><path style="opacity:0.4" fill="#1f91c0" d="M 83.5,119.5 C 85.0269,119.427 86.0269,120.094 86.5,121.5C 84.9731,121.573 83.9731,120.906 83.5,119.5 Z"/></g>
<g><path style="opacity:0.248" fill="#1f91c0" d="M 60.5,129.5 C 59.776,127.782 59.1094,125.948 58.5,124C 56.1902,123.503 53.8568,123.337 51.5,123.5C 51.7373,124.791 51.404,125.791 50.5,126.5C 50.5,125.167 50.5,123.833 50.5,122.5C 53.5184,122.335 56.5184,122.502 59.5,123C 60.4231,125.041 60.7564,127.208 60.5,129.5 Z"/></g>
<g><path style="opacity:0.761" fill="#1f91c0" d="M 97.5,121.5 C 97.5,122.167 97.5,122.833 97.5,123.5C 94.8333,122.833 94.8333,122.167 97.5,121.5 Z"/></g>
<g><path style="opacity:0.639" fill="#1f91c0" d="M 70.5,119.5 C 70.7062,122.495 70.0395,125.162 68.5,127.5C 68.5651,124.572 69.2318,121.905 70.5,119.5 Z"/></g>
<g><path style="opacity:0.167" fill="#1f91c0" d="M 137.5,104.5 C 138.166,109.489 138.499,114.656 138.5,120C 138.495,125.546 137.828,130.712 136.5,135.5C 137.475,125.249 137.808,114.915 137.5,104.5 Z"/></g>
<g><path style="opacity:0.431" fill="#1f91c0" d="M 95.5,127.5 C 97.0269,127.427 98.0269,128.094 98.5,129.5C 96.9731,129.573 95.9731,128.906 95.5,127.5 Z"/></g>
<g><path style="opacity:0.427" fill="#1f91c0" d="M 98.5,129.5 C 100.027,129.427 101.027,130.094 101.5,131.5C 99.9731,131.573 98.9731,130.906 98.5,129.5 Z"/></g>
<g><path style="opacity:0.379" fill="#1f91c0" d="M 151.5,128.5 C 152.371,131.003 153.037,133.67 153.5,136.5C 152.883,136.389 152.383,136.056 152,135.5C 151.503,133.19 151.337,130.857 151.5,128.5 Z"/></g>
<g><path style="opacity:0.808" fill="#1f91c0" d="M 46.5,124.5 C 46.6646,127.518 46.498,130.518 46,133.5C 45.7216,134.416 45.2216,135.082 44.5,135.5C 44.9309,131.663 45.5975,127.997 46.5,124.5 Z"/></g>
<g><path style="opacity:0.388" fill="#1f91c0" d="M 101.5,131.5 C 103.027,131.427 104.027,132.094 104.5,133.5C 102.973,133.573 101.973,132.906 101.5,131.5 Z"/></g>
<g><path style="opacity:0.773" fill="#1f91c0" d="M 114.5,126.5 C 115.64,129.368 116.64,132.368 117.5,135.5C 115.149,133.159 114.149,130.159 114.5,126.5 Z"/></g>
<g><path style="opacity:0.756" fill="#1f91c0" d="M 104.5,133.5 C 106.048,133.821 106.715,134.821 106.5,136.5C 96.4778,136.832 86.4778,136.499 76.5,135.5C 76.9569,134.702 77.6236,134.369 78.5,134.5C 84.2847,134.393 90.2847,134.726 96.5,135.5C 99.5,135.333 102.5,135.167 105.5,135C 104.944,134.617 104.611,134.117 104.5,133.5 Z"/></g>
<g><path style="opacity:0.655" fill="#1f91c0" d="M 153.5,136.5 C 156.167,137.5 156.167,138.5 153.5,139.5C 153.5,138.5 153.5,137.5 153.5,136.5 Z"/></g>
</svg>
