<?xml version="1.0" encoding="UTF-8"?>
<!DOCTYPE svg PUBLIC "-//W3C//DTD SVG 1.1//EN" "http://www.w3.org/Graphics/SVG/1.1/DTD/svg11.dtd">
<svg xmlns="http://www.w3.org/2000/svg" version="1.1" width="205px" height="173px" style="shape-rendering:geometricPrecision; text-rendering:geometricPrecision; image-rendering:optimizeQuality; fill-rule:evenodd; clip-rule:evenodd" xmlns:xlink="http://www.w3.org/1999/xlink">
<g><path style="opacity:0.706" fill="#1f91c0" d="M 116.5,17.5 C 114.379,17.3253 112.379,17.6586 110.5,18.5C 110.484,16.5159 111.484,15.5159 113.5,15.5C 115.038,15.4534 116.038,16.1201 116.5,17.5 Z"/></g>
<g><path style="opacity:1" fill="#1f91c0" d="M 116.5,17.5 C 118.167,18.5 119.5,19.8333 120.5,21.5C 120.738,23.4044 121.738,24.7377 123.5,25.5C 124.338,25.8417 124.672,26.5084 124.5,27.5C 124.427,29.0269 125.094,30.0269 126.5,30.5C 126.259,32.8984 126.926,34.8984 128.5,36.5C 131.553,47.4247 130.72,58.0914 126,68.5C 121.066,76.3664 114.233,80.3664 105.5,80.5C 105.5,79.1667 105.5,77.8333 105.5,76.5C 110.776,74.5238 115.443,71.5238 119.5,67.5C 120.906,67.0269 121.573,66.0269 121.5,64.5C 123.284,56.2943 123.95,47.9609 123.5,39.5C 123.741,37.1016 123.074,35.1016 121.5,33.5C 120.662,33.1583 120.328,32.4916 120.5,31.5C 120.715,29.8212 120.048,28.8212 118.5,28.5C 117.441,26.4446 115.775,25.1112 113.5,24.5C 111.973,24.427 110.973,25.0937 110.5,26.5C 104.823,32.1759 98.823,37.5092 92.5,42.5C 90.5,42.5 89.5,43.5 89.5,45.5C 82.5799,55.0607 82.9132,64.394 90.5,73.5C 92.3059,76.3382 93.3059,76.0048 93.5,72.5C 95.2132,71.3646 95.8799,69.698 95.5,67.5C 95.2627,66.209 95.596,65.209 96.5,64.5C 98.2132,63.3646 98.8799,61.698 98.5,59.5C 100.213,58.3646 100.88,56.698 100.5,54.5C 100.557,53.391 100.89,52.391 101.5,51.5C 102.931,50.2196 103.598,48.5529 103.5,46.5C 105.213,45.3646 105.88,43.698 105.5,41.5C 108.775,38.484 110.775,39.1507 111.5,43.5C 107.322,51.8627 103.822,60.5294 101,69.5C 100.82,79.4105 100.32,89.2438 99.5,99C 98.2161,99.6838 97.0495,99.5171 96,98.5C 93.9066,88.4171 89.24,79.7504 82,72.5C 80.878,70.5932 80.0447,68.5932 79.5,66.5C 78.2388,61.1753 78.2388,55.842 79.5,50.5C 80.6737,49.4863 81.3404,48.153 81.5,46.5C 82.9063,46.0269 83.573,45.0269 83.5,43.5C 85.5869,42.4154 86.9202,40.7488 87.5,38.5C 90.4274,37.2427 92.7607,35.2427 94.5,32.5C 96.4044,32.2624 97.7377,31.2624 98.5,29.5C 100.404,29.2624 101.738,28.2624 102.5,26.5C 106.167,24.8333 108.833,22.1667 110.5,18.5C 112.379,17.6586 114.379,17.3253 116.5,17.5 Z"/></g>
<g><path style="opacity:0.604" fill="#1f91c0" d="M 110.5,18.5 C 108.833,22.1667 106.167,24.8333 102.5,26.5C 104.833,23.5 107.5,20.8333 110.5,18.5 Z"/></g>
<g><path style="opacity:0.875" fill="#1f91c0" d="M 120.5,21.5 C 122.262,22.2623 123.262,23.5956 123.5,25.5C 121.738,24.7377 120.738,23.4044 120.5,21.5 Z"/></g>
<g><path style="opacity:0.012" fill="#1f91c0" d="M 113.5,24.5 C 113.027,25.9063 112.027,26.573 110.5,26.5C 110.973,25.0937 111.973,24.427 113.5,24.5 Z"/></g>
<g><path style="opacity:0.569" fill="#1f91c0" d="M 102.5,26.5 C 101.738,28.2624 100.404,29.2624 98.5,29.5C 99.2623,27.7376 100.596,26.7376 102.5,26.5 Z"/></g>
<g><path style="opacity:0.914" fill="#1f91c0" d="M 118.5,28.5 C 120.048,28.8212 120.715,29.8212 120.5,31.5C 119.599,30.7095 118.932,29.7095 118.5,28.5 Z"/></g>
<g><path style="opacity:0.208" fill="#1f91c0" d="M 124.5,27.5 C 125.906,27.9731 126.573,28.9731 126.5,30.5C 125.094,30.0269 124.427,29.0269 124.5,27.5 Z"/></g>
<g><path style="opacity:0.518" fill="#1f91c0" d="M 98.5,29.5 C 97.7377,31.2624 96.4044,32.2624 94.5,32.5C 95.2623,30.7376 96.5956,29.7376 98.5,29.5 Z"/></g>
<g><path style="opacity:0.808" fill="#1f91c0" d="M 126.5,30.5 C 127.738,32.2143 128.405,34.2143 128.5,36.5C 126.926,34.8984 126.259,32.8984 126.5,30.5 Z"/></g>
<g><path style="opacity:0.847" fill="#1f91c0" d="M 94.5,32.5 C 92.7607,35.2427 90.4274,37.2427 87.5,38.5C 89.2393,35.7573 91.5726,33.7573 94.5,32.5 Z"/></g>
<g><path style="opacity:0.369" fill="#1f91c0" d="M 121.5,33.5 C 123.074,35.1016 123.741,37.1016 123.5,39.5C 122.262,37.7857 121.595,35.7857 121.5,33.5 Z"/></g>
<g><path style="opacity:0.073" fill="#1f91c0" d="M 111.5,43.5 C 110.775,39.1507 108.775,38.484 105.5,41.5C 106.484,37.2638 108.651,36.5971 112,39.5C 112.765,41.0657 112.598,42.3991 111.5,43.5 Z"/></g>
<g><path style="opacity:0.357" fill="#1f91c0" d="M 87.5,38.5 C 86.9202,40.7488 85.5869,42.4154 83.5,43.5C 84.0798,41.2512 85.4131,39.5846 87.5,38.5 Z"/></g>
<g><path style="opacity:0.027" fill="#1f91c0" d="M 92.5,42.5 C 91.8333,43.8333 90.8333,44.8333 89.5,45.5C 89.5,43.5 90.5,42.5 92.5,42.5 Z"/></g>
<g><path style="opacity:0.686" fill="#1f91c0" d="M 41.5,44.5 C 40.1667,44.8333 38.8333,45.1667 37.5,45.5C 38.5383,43.4805 39.8716,43.1472 41.5,44.5 Z"/></g>
<g><path style="opacity:0.918" fill="#1f91c0" d="M 105.5,41.5 C 105.88,43.698 105.213,45.3646 103.5,46.5C 103.402,44.4471 104.069,42.7804 105.5,41.5 Z"/></g>
<g><path style="opacity:0.004" fill="#1f91c0" d="M 164.5,44.5 C 165.833,44.5 166.5,45.1667 166.5,46.5C 165.5,46.1667 164.833,45.5 164.5,44.5 Z"/></g>
<g><path style="opacity:1" fill="#1f91c0" d="M 41.5,44.5 C 49.6529,46.8354 53.9862,52.3354 54.5,61C 54.1514,64.2435 53.4847,67.4102 52.5,70.5C 53.154,72.1151 53.654,73.7818 54,75.5C 62.211,82.7129 70.711,89.5462 79.5,96C 87.8306,102.143 92.4973,110.31 93.5,120.5C 92.7504,124.025 92.4171,127.359 92.5,130.5C 92.5,131.833 93.1667,132.5 94.5,132.5C 96.7525,132.916 98.2525,134.249 99,136.5C 99.7625,140.587 99.5958,144.587 98.5,148.5C 97.1667,148.5 95.8333,148.5 94.5,148.5C 94.8128,144.958 94.4794,141.625 93.5,138.5C 81.8333,138.5 70.1667,138.5 58.5,138.5C 58.5,141.833 58.5,145.167 58.5,148.5C 56.8333,148.5 55.1667,148.5 53.5,148.5C 52.3516,144.019 52.1849,139.352 53,134.5C 53.6708,133.748 54.5041,133.414 55.5,133.5C 60.909,134.06 61.5757,133.06 57.5,130.5C 57.2624,128.596 56.2624,127.262 54.5,126.5C 50.8616,122.526 47.1949,118.526 43.5,114.5C 43.573,112.973 42.9063,111.973 41.5,111.5C 38.2633,109.37 36.2633,106.37 35.5,102.5C 35.405,100.214 34.7384,98.2143 33.5,96.5C 32.0772,82.419 32.4105,68.419 34.5,54.5C 35.9459,51.7458 36.9459,48.7458 37.5,45.5C 38.8333,45.1667 40.1667,44.8333 41.5,44.5 Z M 46.5,54.5 C 47.299,57.4299 47.6323,60.4299 47.5,63.5C 46.3187,66.6377 46.3187,69.6377 47.5,72.5C 48.0508,75.8067 48.3841,79.1401 48.5,82.5C 44.4538,85.6628 43.7871,89.3295 46.5,93.5C 48.7881,97.4558 51.7881,100.789 55.5,103.5C 55.7376,105.404 56.7376,106.738 58.5,107.5C 59.4006,109.727 61.0672,110.727 63.5,110.5C 64.9063,110.027 65.573,109.027 65.5,107.5C 61.5998,102.092 57.0998,97.0924 52,92.5C 51.6905,91.2341 51.1905,90.0674 50.5,89C 51.5786,88.044 52.7453,87.2106 54,86.5C 57.1669,87.1672 60.0002,88.5006 62.5,90.5C 62.9731,91.9063 63.9731,92.573 65.5,92.5C 65.8333,93.5 66.5,94.1667 67.5,94.5C 68.2623,96.2624 69.5956,97.2624 71.5,97.5C 72.5,99.1667 73.8333,100.5 75.5,101.5C 75.9731,102.906 76.9731,103.573 78.5,103.5C 82.0017,106.652 84.6684,110.319 86.5,114.5C 86.5,120.5 86.5,126.5 86.5,132.5C 79.8333,132.5 73.1667,132.5 66.5,132.5C 65.5,130.833 64.1667,129.5 62.5,128.5C 62.573,126.973 61.9063,125.973 60.5,125.5C 60.1667,124.5 59.5,123.833 58.5,123.5C 58.573,121.973 57.9063,120.973 56.5,120.5C 56.1667,119.5 55.5,118.833 54.5,118.5C 54.573,116.973 53.9063,115.973 52.5,115.5C 48.8362,111.668 45.3362,107.668 42,103.5C 40.1729,99.7185 39.1729,95.7185 39,91.5C 38.8575,77.8227 39.3575,64.1561 40.5,50.5C 42.7901,51.4671 44.7901,52.8004 46.5,54.5 Z"/></g>
<g><path style="opacity:0.318" fill="#1f91c0" d="M 83.5,43.5 C 83.573,45.0269 82.9063,46.0269 81.5,46.5C 81.427,44.9731 82.0937,43.9731 83.5,43.5 Z"/></g>
<g><path style="opacity:1" fill="#1f91c0" d="M 164.5,44.5 C 164.833,45.5 165.5,46.1667 166.5,46.5C 166.565,49.4282 167.232,52.0948 168.5,54.5C 169.185,56.4144 169.685,58.4144 170,60.5C 170.667,73.5 170.667,86.5 170,99.5C 168.788,103.528 166.621,106.862 163.5,109.5C 162.094,109.973 161.427,110.973 161.5,112.5C 159.833,114.833 157.833,116.833 155.5,118.5C 154.094,118.973 153.427,119.973 153.5,121.5C 150.842,124.803 148.175,128.136 145.5,131.5C 146.357,132.425 147.357,133.092 148.5,133.5C 149.392,138.438 149.726,143.438 149.5,148.5C 148.167,148.5 146.833,148.5 145.5,148.5C 145.5,145.167 145.5,141.833 145.5,138.5C 133.833,138.5 122.167,138.5 110.5,138.5C 109.521,141.625 109.187,144.958 109.5,148.5C 108.167,148.5 106.833,148.5 105.5,148.5C 104.256,143.965 104.256,139.298 105.5,134.5C 107.371,134.141 108.871,133.141 110,131.5C 110.359,125.477 110.859,119.477 111.5,113.5C 111.794,110.246 113.127,107.579 115.5,105.5C 117.167,104.5 118.5,103.167 119.5,101.5C 121.962,98.5361 124.629,95.7028 127.5,93C 131.761,88.8985 136.428,85.3985 141.5,82.5C 143.027,82.573 144.027,81.9063 144.5,80.5C 147.562,79.7322 149.228,77.7322 149.5,74.5C 149.691,69.6281 149.358,64.7948 148.5,60C 148.802,57.6005 149.468,55.4338 150.5,53.5C 151.906,53.0269 152.573,52.0269 152.5,50.5C 153.833,49.8333 154.833,48.8333 155.5,47.5C 157.452,45.3339 159.952,44.0006 163,43.5C 163.765,43.5699 164.265,43.9033 164.5,44.5 Z M 161.5,50.5 C 162.167,55.5 162.833,60.5 163.5,65.5C 163.5,68.1667 163.5,70.8333 163.5,73.5C 163.74,81.8746 163.407,90.2079 162.5,98.5C 161.463,99.9303 160.796,101.597 160.5,103.5C 157.531,107.476 154.531,111.476 151.5,115.5C 149.167,115.833 147.833,117.167 147.5,119.5C 146.5,119.833 145.833,120.5 145.5,121.5C 144.094,121.973 143.427,122.973 143.5,124.5C 141.372,127.13 139.039,129.63 136.5,132C 129.842,132.5 123.175,132.666 116.5,132.5C 113.98,119.707 117.647,109.207 127.5,101C 133.753,97.7424 139.086,93.4091 143.5,88C 145.167,87.1667 146.833,86.3333 148.5,85.5C 150.962,88.2205 151.129,91.2205 149,94.5C 145.271,98.3981 141.438,102.065 137.5,105.5C 134.833,106.5 134.833,107.5 137.5,108.5C 139.128,109.853 140.462,109.519 141.5,107.5C 143.027,107.573 144.027,106.906 144.5,105.5C 147.874,102.49 151.208,99.4905 154.5,96.5C 155.906,96.0269 156.573,95.0269 156.5,93.5C 157.665,92.5039 158.332,91.1705 158.5,89.5C 157.139,86.1212 155.806,82.7879 154.5,79.5C 156.499,73.8716 156.832,68.2049 155.5,62.5C 155.401,59.7628 155.735,57.0961 156.5,54.5C 158.167,53.1667 159.833,51.8333 161.5,50.5 Z"/></g>
<g><path style="opacity:0.612" fill="#1f91c0" d="M 37.5,45.5 C 36.9459,48.7458 35.9459,51.7458 34.5,54.5C 34.446,51.0076 35.446,48.0076 37.5,45.5 Z"/></g>
<g><path style="opacity:0.11" fill="#1f91c0" d="M 81.5,46.5 C 81.3404,48.153 80.6737,49.4863 79.5,50.5C 79.2291,48.6203 79.8958,47.287 81.5,46.5 Z"/></g>
<g><path style="opacity:0.086" fill="#1f91c0" d="M 103.5,46.5 C 103.598,48.5529 102.931,50.2196 101.5,51.5C 101.402,49.4471 102.069,47.7804 103.5,46.5 Z"/></g>
<g><path style="opacity:0.384" fill="#1f91c0" d="M 155.5,47.5 C 154.833,48.8333 153.833,49.8333 152.5,50.5C 152.5,48.5 153.5,47.5 155.5,47.5 Z"/></g>
<g><path style="opacity:0.31" fill="#1f91c0" d="M 152.5,50.5 C 152.573,52.0269 151.906,53.0269 150.5,53.5C 150.427,51.9731 151.094,50.9731 152.5,50.5 Z"/></g>
<g><path style="opacity:0.498" fill="#1f91c0" d="M 166.5,46.5 C 168.04,48.8383 168.706,51.5049 168.5,54.5C 167.232,52.0948 166.565,49.4282 166.5,46.5 Z"/></g>
<g><path style="opacity:0.065" fill="#1f91c0" d="M 46.5,54.5 C 47.1174,54.6107 47.6174,54.944 48,55.5C 48.8007,58.367 48.6341,61.0336 47.5,63.5C 47.6323,60.4299 47.299,57.4299 46.5,54.5 Z"/></g>
<g><path style="opacity:0.922" fill="#1f91c0" d="M 100.5,54.5 C 100.88,56.698 100.213,58.3646 98.5,59.5C 98.7959,57.597 99.4625,55.9303 100.5,54.5 Z"/></g>
<g><path style="opacity:0.229" fill="#1f91c0" d="M 79.5,50.5 C 78.2388,55.842 78.2388,61.1753 79.5,66.5C 77.9532,64.1934 77.2865,61.5267 77.5,58.5C 77.2865,55.4733 77.9532,52.8066 79.5,50.5 Z"/></g>
<g><path style="opacity:0.045" fill="#1f91c0" d="M 161.5,50.5 C 161.56,49.9569 161.893,49.6236 162.5,49.5C 163.495,54.7921 163.828,60.1254 163.5,65.5C 162.833,60.5 162.167,55.5 161.5,50.5 Z"/></g>
<g><path style="opacity:0.2" fill="#1f91c0" d="M 156.5,54.5 C 155.735,57.0961 155.401,59.7628 155.5,62.5C 154.848,61.5514 154.514,60.3847 154.5,59C 154.307,56.9919 154.974,55.4919 156.5,54.5 Z"/></g>
<g><path style="opacity:0.851" fill="#1f91c0" d="M 98.5,59.5 C 98.8799,61.698 98.2132,63.3646 96.5,64.5C 96.7959,62.597 97.4625,60.9303 98.5,59.5 Z"/></g>
<g><path style="opacity:0.38" fill="#1f91c0" d="M 121.5,64.5 C 121.573,66.0269 120.906,67.0269 119.5,67.5C 119.427,65.9731 120.094,64.9731 121.5,64.5 Z"/></g>
<g><path style="opacity:1" fill="#345f5b" d="M 95.5,67.5 C 95.8799,69.698 95.2132,71.3646 93.5,72.5C 93.4021,70.4471 94.0687,68.7804 95.5,67.5 Z"/></g>
<g><path style="opacity:0.048" fill="#1f91c0" d="M 93.5,72.5 C 93.3059,76.0048 92.3059,76.3382 90.5,73.5C 91.609,73.4431 92.609,73.1098 93.5,72.5 Z"/></g>
<g><path style="opacity:0.016" fill="#1f91c0" d="M 47.5,72.5 C 49.5314,75.7076 49.8647,79.041 48.5,82.5C 48.3841,79.1401 48.0508,75.8067 47.5,72.5 Z"/></g>
<g><path style="opacity:0.098" fill="#1f91c0" d="M 105.5,76.5 C 105.5,77.8333 105.5,79.1667 105.5,80.5C 103.219,78.9678 103.219,77.6344 105.5,76.5 Z"/></g>
<g><path style="opacity:0.984" fill="#1f91c0" d="M 149.5,74.5 C 149.228,77.7322 147.562,79.7322 144.5,80.5C 146.177,78.4602 147.844,76.4602 149.5,74.5 Z"/></g>
<g><path style="opacity:0.8" fill="#1f91c0" d="M 144.5,80.5 C 144.027,81.9063 143.027,82.573 141.5,82.5C 141.973,81.0937 142.973,80.427 144.5,80.5 Z"/></g>
<g><path style="opacity:0.704" fill="#1f91c0" d="M 48.5,82.5 C 46.78,85.8892 46.1134,89.5559 46.5,93.5C 43.7871,89.3295 44.4538,85.6628 48.5,82.5 Z"/></g>
<g><path style="opacity:0.667" fill="#1f91c0" d="M 62.5,90.5 C 64.0269,90.427 65.0269,91.0937 65.5,92.5C 63.9731,92.573 62.9731,91.9063 62.5,90.5 Z"/></g>
<g><path style="opacity:0.812" fill="#1f91c0" d="M 67.5,94.5 C 69.4044,94.7376 70.7377,95.7376 71.5,97.5C 69.5956,97.2624 68.2623,96.2624 67.5,94.5 Z"/></g>
<g><path style="opacity:0.071" fill="#1f91c0" d="M 156.5,93.5 C 156.573,95.0269 155.906,96.0269 154.5,96.5C 154.427,94.9731 155.094,93.9731 156.5,93.5 Z"/></g>
<g><path style="opacity:0.976" fill="#1f91c0" d="M 163.5,73.5 C 164.656,81.3225 164.823,89.3225 164,97.5C 163.617,98.056 163.117,98.3893 162.5,98.5C 163.407,90.2079 163.74,81.8746 163.5,73.5 Z"/></g>
<g><path style="opacity:0.035" fill="#1f91c0" d="M 33.5,96.5 C 34.7384,98.2143 35.405,100.214 35.5,102.5C 33.9261,100.898 33.2594,98.8984 33.5,96.5 Z"/></g>
<g><path style="opacity:0.596" fill="#1f91c0" d="M 75.5,101.5 C 77.0269,101.427 78.0269,102.094 78.5,103.5C 76.9731,103.573 75.9731,102.906 75.5,101.5 Z"/></g>
<g><path style="opacity:0.851" fill="#1f91c0" d="M 162.5,98.5 C 162.88,100.698 162.213,102.365 160.5,103.5C 160.796,101.597 161.463,99.9303 162.5,98.5 Z"/></g>
<g><path style="opacity:0.525" fill="#1f91c0" d="M 119.5,101.5 C 118.5,103.167 117.167,104.5 115.5,105.5C 115.833,103.167 117.167,101.833 119.5,101.5 Z"/></g>
<g><path style="opacity:0.012" fill="#1f91c0" d="M 55.5,103.5 C 57.2624,104.262 58.2624,105.596 58.5,107.5C 56.7376,106.738 55.7376,105.404 55.5,103.5 Z"/></g>
<g><path style="opacity:0.89" fill="#1f91c0" d="M 137.5,105.5 C 137.5,106.5 137.5,107.5 137.5,108.5C 134.833,107.5 134.833,106.5 137.5,105.5 Z"/></g>
<g><path style="opacity:0.016" fill="#1f91c0" d="M 144.5,105.5 C 144.027,106.906 143.027,107.573 141.5,107.5C 141.973,106.094 142.973,105.427 144.5,105.5 Z"/></g>
<g><path style="opacity:0.016" fill="#1f91c0" d="M 65.5,107.5 C 65.573,109.027 64.9063,110.027 63.5,110.5C 63.427,108.973 64.0937,107.973 65.5,107.5 Z"/></g>
<g><path style="opacity:0.004" fill="#1f91c0" d="M 163.5,109.5 C 163.573,111.027 162.906,112.027 161.5,112.5C 161.427,110.973 162.094,109.973 163.5,109.5 Z"/></g>
<g><path style="opacity:0.012" fill="#314752" d="M 41.5,111.5 C 42.9063,111.973 43.573,112.973 43.5,114.5C 42.0937,114.027 41.427,113.027 41.5,111.5 Z"/></g>
<g><path style="opacity:0.812" fill="#33615b" d="M 52.5,115.5 C 53.9063,115.973 54.573,116.973 54.5,118.5C 53.0937,118.027 52.427,117.027 52.5,115.5 Z"/></g>
<g><path style="opacity:0.443" fill="#304f54" d="M 151.5,115.5 C 150.5,117.167 149.167,118.5 147.5,119.5C 147.833,117.167 149.167,115.833 151.5,115.5 Z"/></g>
<g><path style="opacity:0.105" fill="#324b53" d="M 111.5,113.5 C 110.859,119.477 110.359,125.477 110,131.5C 108.871,133.141 107.371,134.141 105.5,134.5C 106.458,133.038 107.624,131.705 109,130.5C 109.333,125.833 109.667,121.167 110,116.5C 110.232,115.263 110.732,114.263 111.5,113.5 Z"/></g>
<g><path style="opacity:0.016" fill="#314752" d="M 155.5,118.5 C 155.573,120.027 154.906,121.027 153.5,121.5C 153.427,119.973 154.094,118.973 155.5,118.5 Z"/></g>
<g><path style="opacity:0.675" fill="#335d5a" d="M 56.5,120.5 C 57.9063,120.973 58.573,121.973 58.5,123.5C 57.0937,123.027 56.427,122.027 56.5,120.5 Z"/></g>
<g><path style="opacity:0.361" fill="#315457" d="M 145.5,121.5 C 145.573,123.027 144.906,124.027 143.5,124.5C 143.427,122.973 144.094,121.973 145.5,121.5 Z"/></g>
<g><path style="opacity:0.718" fill="#325b59" d="M 60.5,125.5 C 61.9063,125.973 62.573,126.973 62.5,128.5C 61.0937,128.027 60.427,127.027 60.5,125.5 Z"/></g>
<g><path style="opacity:0.004" fill="#1f91c0" d="M 54.5,126.5 C 56.2624,127.262 57.2624,128.596 57.5,130.5C 55.7376,129.738 54.7376,128.404 54.5,126.5 Z"/></g>
<g><path style="opacity:0.227" fill="#1f91c0" d="M 92.5,130.5 C 93.5,130.833 94.1667,131.5 94.5,132.5C 93.1667,132.5 92.5,131.833 92.5,130.5 Z"/></g>
<g><path style="opacity:0.157" fill="#1f91c0" d="M 57.5,130.5 C 61.5757,133.06 60.909,134.06 55.5,133.5C 56.2625,132.732 57.2625,132.232 58.5,132C 57.944,131.617 57.6107,131.117 57.5,130.5 Z"/></g>
<g><path style="opacity:0.372" fill="#1f91c0" d="M 86.5,114.5 C 87.4902,120.645 87.8235,126.978 87.5,133.5C 80.3134,133.825 73.3134,133.491 66.5,132.5C 73.1667,132.5 79.8333,132.5 86.5,132.5C 86.5,126.5 86.5,120.5 86.5,114.5 Z"/></g>
<g><path style="opacity:0.031" fill="#1f91c0" d="M 93.5,138.5 C 93.5,138.833 93.5,139.167 93.5,139.5C 82.1667,139.5 70.8333,139.5 59.5,139.5C 59.665,142.85 59.4983,146.183 59,149.5C 56.8824,150.739 55.049,150.405 53.5,148.5C 55.1667,148.5 56.8333,148.5 58.5,148.5C 58.5,145.167 58.5,141.833 58.5,138.5C 70.1667,138.5 81.8333,138.5 93.5,138.5 Z"/></g>
<g><path style="opacity:0.719" fill="#1f91c0" d="M 93.5,138.5 C 94.4794,141.625 94.8128,144.958 94.5,148.5C 95.8333,148.5 97.1667,148.5 98.5,148.5C 97.0813,149.451 95.4147,149.784 93.5,149.5C 93.5,146.167 93.5,142.833 93.5,139.5C 93.5,139.167 93.5,138.833 93.5,138.5 Z"/></g>
<g><path style="opacity:1" fill="#1f91c0" d="M 86.5,142.5 C 86.5,143.833 86.5,145.167 86.5,146.5C 85.1667,146.5 83.8333,146.5 82.5,146.5C 81.4017,145.399 81.235,144.066 82,142.5C 83.6155,141.199 85.1155,141.199 86.5,142.5 Z"/></g>
<g><path style="opacity:1" fill="#1f91c0" d="M 120.5,142.5 C 120.5,143.5 120.5,144.5 120.5,145.5C 119.167,145.5 117.833,145.5 116.5,145.5C 116.5,144.5 116.5,143.5 116.5,142.5C 117.833,141.167 119.167,141.167 120.5,142.5 Z"/></g>
<g><path style="opacity:0.131" fill="#1f91c0" d="M 105.5,134.5 C 104.256,139.298 104.256,143.965 105.5,148.5C 105.5,148.833 105.5,149.167 105.5,149.5C 104.195,147.603 103.529,145.269 103.5,142.5C 103.667,140.167 103.833,137.833 104,135.5C 104.383,134.944 104.883,134.611 105.5,134.5 Z"/></g>
<g><path style="opacity:0.751" fill="#1f91c0" d="M 116.5,142.5 C 116.5,143.5 116.5,144.5 116.5,145.5C 117.833,145.5 119.167,145.5 120.5,145.5C 120.5,144.5 120.5,143.5 120.5,142.5C 123.098,144.999 122.432,146.666 118.5,147.5C 117.558,147.392 116.725,147.059 116,146.5C 115.235,144.934 115.402,143.601 116.5,142.5 Z"/></g>
<g><path style="opacity:0.122" fill="#1f91c0" d="M 86.5,142.5 C 88.5988,143.37 88.9321,144.703 87.5,146.5C 85.7015,147.788 84.0348,147.788 82.5,146.5C 83.8333,146.5 85.1667,146.5 86.5,146.5C 86.5,145.167 86.5,143.833 86.5,142.5 Z"/></g>
<g><path style="opacity:0.551" fill="#1f91c0" d="M 110.5,138.5 C 110.5,138.833 110.5,139.167 110.5,139.5C 110.82,142.898 110.487,146.232 109.5,149.5C 108.005,150.705 106.672,150.705 105.5,149.5C 105.5,149.167 105.5,148.833 105.5,148.5C 106.833,148.5 108.167,148.5 109.5,148.5C 109.187,144.958 109.521,141.625 110.5,138.5 Z"/></g>
<g><path style="opacity:0.599" fill="#1f91c0" d="M 148.5,133.5 C 150.445,135.307 151.445,137.64 151.5,140.5C 151,143.5 150.5,146.5 150,149.5C 148.204,150.767 146.371,150.767 144.5,149.5C 143.808,146.23 143.808,142.897 144.5,139.5C 133.167,139.5 121.833,139.5 110.5,139.5C 110.5,139.167 110.5,138.833 110.5,138.5C 122.167,138.5 133.833,138.5 145.5,138.5C 145.5,141.833 145.5,145.167 145.5,148.5C 146.833,148.5 148.167,148.5 149.5,148.5C 149.726,143.438 149.392,138.438 148.5,133.5 Z"/></g>
</svg>
