<?xml version="1.0" encoding="UTF-8"?>
<!DOCTYPE svg PUBLIC "-//W3C//DTD SVG 1.1//EN" "http://www.w3.org/Graphics/SVG/1.1/DTD/svg11.dtd">
<svg xmlns="http://www.w3.org/2000/svg" version="1.1" width="197px" height="173px" style="shape-rendering:geometricPrecision; text-rendering:geometricPrecision; image-rendering:optimizeQuality; fill-rule:evenodd; clip-rule:evenodd" xmlns:xlink="http://www.w3.org/1999/xlink">
<g><path style="opacity:0.1" fill="#1f91c0" d="M 99.5,31.5 C 98.1667,31.5 96.8333,31.5 95.5,31.5C 97.0322,29.2187 98.3656,29.2187 99.5,31.5 Z"/></g>
<g><path style="opacity:0.999" fill="#1f91c0" d="M 95.5,31.5 C 96.8333,31.5 98.1667,31.5 99.5,31.5C 97.6601,39.56 99.9935,45.8934 106.5,50.5C 108.852,56.3729 107.186,60.8729 101.5,64C 95.7659,65.6298 91.7659,63.7965 89.5,58.5C 89.0339,54.838 89.7006,51.5046 91.5,48.5C 92.6883,47.6364 93.8549,46.6364 95,45.5C 95.4992,40.8452 95.6658,36.1785 95.5,31.5 Z M 94.5,57.5 C 94.5,55.8333 94.5,54.1667 94.5,52.5C 101.937,51.7134 103.271,53.8801 98.5,59C 96.9343,59.2997 95.601,58.7997 94.5,57.5 Z"/></g>
<g><path style="opacity:0.127" fill="#1f91c0" d="M 90.5,42.5 C 90.67,41.1779 90.3366,40.0113 89.5,39C 87.1902,38.5034 84.8568,38.3367 82.5,38.5C 85.2626,35.9847 88.0959,35.9847 91,38.5C 91.765,40.0657 91.5983,41.3991 90.5,42.5 Z"/></g>
<g><path style="opacity:0.084" fill="#1f91c0" d="M 114.5,38.5 C 116.027,38.427 117.027,39.0937 117.5,40.5C 115.973,40.573 114.973,39.9063 114.5,38.5 Z"/></g>
<g><path style="opacity:0.431" fill="#1f91c0" d="M 82.5,38.5 C 81.4863,39.6737 80.153,40.3404 78.5,40.5C 79.287,38.8958 80.6203,38.2291 82.5,38.5 Z"/></g>
<g><path style="opacity:0.993" fill="#1f91c0" d="M 82.5,38.5 C 84.8568,38.3367 87.1902,38.5034 89.5,39C 90.3366,40.0113 90.67,41.1779 90.5,42.5C 88.1432,42.3367 85.8098,42.5034 83.5,43C 82.944,43.3826 82.6107,43.8826 82.5,44.5C 79.8333,45.1667 78.1667,46.8333 77.5,49.5C 76.0937,49.9731 75.427,50.9731 75.5,52.5C 75.5,53.1667 75.1667,53.5 74.5,53.5C 73.0937,53.9731 72.427,54.9731 72.5,56.5C 72.5,57.1667 72.1667,57.5 71.5,57.5C 70.0937,57.9731 69.427,58.9731 69.5,60.5C 69.5,61.1667 69.1667,61.5 68.5,61.5C 67.0937,61.9731 66.427,62.9731 66.5,64.5C 66.1667,65.5 65.5,66.1667 64.5,66.5C 63.0937,66.9731 62.427,67.9731 62.5,69.5C 62.0679,70.7095 61.4013,71.7095 60.5,72.5C 59.1667,94.8333 59.1667,117.167 60.5,139.5C 85.5,140.833 110.5,140.833 135.5,139.5C 136.663,117.671 136.83,95.6705 136,73.5C 135.722,72.5842 135.222,71.9175 134.5,71.5C 132.147,69.1401 130.147,66.4735 128.5,63.5C 128.573,61.9731 127.906,60.9731 126.5,60.5C 125.833,60.5 125.5,60.1667 125.5,59.5C 125.573,57.9731 124.906,56.9731 123.5,56.5C 122.833,56.5 122.5,56.1667 122.5,55.5C 122.573,53.9731 121.906,52.9731 120.5,52.5C 119.833,52.5 119.5,52.1667 119.5,51.5C 119.573,49.9731 118.906,48.9731 117.5,48.5C 116.833,48.5 116.5,48.1667 116.5,47.5C 116.084,45.2475 114.751,43.7475 112.5,43C 110.19,42.5034 107.857,42.3367 105.5,42.5C 105.5,41.1667 105.5,39.8333 105.5,38.5C 108.5,38.5 111.5,38.5 114.5,38.5C 114.973,39.9063 115.973,40.573 117.5,40.5C 117.427,42.0269 118.094,43.0269 119.5,43.5C 120.08,45.7488 121.413,47.4154 123.5,48.5C 123.738,50.4044 124.738,51.7377 126.5,52.5C 127.08,54.7488 128.413,56.4154 130.5,57.5C 130.738,59.4044 131.738,60.7377 133.5,61.5C 133.738,63.4044 134.738,64.7377 136.5,65.5C 136.738,67.4044 137.738,68.7377 139.5,69.5C 139.5,94.1667 139.5,118.833 139.5,143.5C 111.5,143.5 83.5,143.5 55.5,143.5C 55.5,119.5 55.5,95.5 55.5,71.5C 55.3284,70.5084 55.6618,69.8417 56.5,69.5C 57.9063,69.0269 58.573,68.0269 58.5,66.5C 60.2624,65.7377 61.2624,64.4044 61.5,62.5C 63.2624,61.7377 64.2624,60.4044 64.5,58.5C 66.2624,57.7377 67.2624,56.4044 67.5,54.5C 69.5869,53.4154 70.9202,51.7488 71.5,49.5C 73.2624,48.7377 74.2624,47.4044 74.5,45.5C 76.5869,44.4154 77.9202,42.7488 78.5,40.5C 80.153,40.3404 81.4863,39.6737 82.5,38.5 Z M 94.5,57.5 C 94.5,55.8333 94.5,54.1667 94.5,52.5C 101.937,51.7134 103.271,53.8801 98.5,59C 96.9343,59.2997 95.601,58.7997 94.5,57.5 Z"/></g>
<g><path style="opacity:0.025" fill="#1f91c0" d="M 99.5,31.5 C 100.201,35.7267 101.034,40.06 102,44.5C 104.127,46.1137 105.627,48.1137 106.5,50.5C 99.9935,45.8934 97.6601,39.56 99.5,31.5 Z"/></g>
<g><path style="opacity:0.282" fill="#1f91c0" d="M 117.5,40.5 C 118.906,40.9731 119.573,41.9731 119.5,43.5C 118.094,43.0269 117.427,42.0269 117.5,40.5 Z"/></g>
<g><path style="opacity:0.012" fill="#1f91c0" d="M 90.5,42.5 C 87.997,43.3705 85.3303,44.0372 82.5,44.5C 82.6107,43.8826 82.944,43.3826 83.5,43C 85.8098,42.5034 88.1432,42.3367 90.5,42.5 Z"/></g>
<g><path style="opacity:0.188" fill="#1f91c0" d="M 78.5,40.5 C 77.9202,42.7488 76.5869,44.4154 74.5,45.5C 75.0798,43.2512 76.4131,41.5846 78.5,40.5 Z"/></g>
<g><path style="opacity:0.02" fill="#1f91c0" d="M 114.5,38.5 C 111.5,38.5 108.5,38.5 105.5,38.5C 105.5,39.8333 105.5,41.1667 105.5,42.5C 107.857,42.3367 110.19,42.5034 112.5,43C 114.751,43.7475 116.084,45.2475 116.5,47.5C 114.79,45.8004 112.79,44.4671 110.5,43.5C 105.716,45.0374 103.55,43.3707 104,38.5C 104.804,37.1955 105.971,36.5288 107.5,36.5C 110.029,36.9289 112.362,37.5955 114.5,38.5 Z"/></g>
<g><path style="opacity:0.161" fill="#1f91c0" d="M 95.5,31.5 C 95.6658,36.1785 95.4992,40.8452 95,45.5C 93.8549,46.6364 92.6883,47.6364 91.5,48.5C 91.1667,48.5 90.8333,48.5 90.5,48.5C 91.2066,46.8656 92.3732,45.5323 94,44.5C 94.1753,39.9805 94.6753,35.6472 95.5,31.5 Z"/></g>
<g><path style="opacity:0.02" fill="#1f91c0" d="M 82.5,44.5 C 81.1667,46.5 79.5,48.1667 77.5,49.5C 78.1667,46.8333 79.8333,45.1667 82.5,44.5 Z"/></g>
<g><path style="opacity:0.455" fill="#1f91c0" d="M 74.5,45.5 C 74.2624,47.4044 73.2624,48.7377 71.5,49.5C 71.7376,47.5956 72.7376,46.2623 74.5,45.5 Z"/></g>
<g><path style="opacity:0.235" fill="#1f91c0" d="M 119.5,43.5 C 121.587,44.5846 122.92,46.2512 123.5,48.5C 121.413,47.4154 120.08,45.7488 119.5,43.5 Z"/></g>
<g><path style="opacity:0.031" fill="#1f91c0" d="M 117.5,48.5 C 118.906,48.9731 119.573,49.9731 119.5,51.5C 118.094,51.0269 117.427,50.0269 117.5,48.5 Z"/></g>
<g><path style="opacity:0.741" fill="#1f91c0" d="M 123.5,48.5 C 125.262,49.2623 126.262,50.5956 126.5,52.5C 124.738,51.7377 123.738,50.4044 123.5,48.5 Z"/></g>
<g><path style="opacity:0.031" fill="#1f91c0" d="M 77.5,49.5 C 77.573,51.0269 76.9063,52.0269 75.5,52.5C 75.427,50.9731 76.0937,49.9731 77.5,49.5 Z"/></g>
<g><path style="opacity:0.192" fill="#1f91c0" d="M 71.5,49.5 C 70.9202,51.7488 69.5869,53.4154 67.5,54.5C 68.0798,52.2512 69.4131,50.5846 71.5,49.5 Z"/></g>
<g><path style="opacity:0.031" fill="#1f91c0" d="M 120.5,52.5 C 121.906,52.9731 122.573,53.9731 122.5,55.5C 121.094,55.0269 120.427,54.0269 120.5,52.5 Z"/></g>
<g><path style="opacity:0.008" fill="#1f91c0" d="M 74.5,53.5 C 74.573,55.0269 73.9063,56.0269 72.5,56.5C 72.427,54.9731 73.0937,53.9731 74.5,53.5 Z"/></g>
<g><path style="opacity:0.714" fill="#1f91c0" d="M 90.5,48.5 C 90.8333,48.5 91.1667,48.5 91.5,48.5C 89.7006,51.5046 89.0339,54.838 89.5,58.5C 86.8012,54.9078 87.1345,51.5745 90.5,48.5 Z"/></g>
<g><path style="opacity:0.4" fill="#1f91c0" d="M 67.5,54.5 C 67.2624,56.4044 66.2624,57.7377 64.5,58.5C 64.7376,56.5956 65.7376,55.2623 67.5,54.5 Z"/></g>
<g><path style="opacity:0.231" fill="#1f91c0" d="M 126.5,52.5 C 128.587,53.5846 129.92,55.2512 130.5,57.5C 128.413,56.4154 127.08,54.7488 126.5,52.5 Z"/></g>
<g><path style="opacity:0.016" fill="#1f91c0" d="M 123.5,56.5 C 124.906,56.9731 125.573,57.9731 125.5,59.5C 124.094,59.0269 123.427,58.0269 123.5,56.5 Z"/></g>
<g><path style="opacity:0.016" fill="#1f91c0" d="M 71.5,57.5 C 71.573,59.0269 70.9063,60.0269 69.5,60.5C 69.427,58.9731 70.0937,57.9731 71.5,57.5 Z"/></g>
<g><path style="opacity:0.059" fill="#1f91c0" d="M 94.5,57.5 C 95.601,58.7997 96.9343,59.2997 98.5,59C 103.271,53.8801 101.937,51.7134 94.5,52.5C 96.0106,50.5589 98.0106,50.0589 100.5,51C 103.625,55.5075 102.625,59.0075 97.5,61.5C 95.7118,60.7174 94.7118,59.3841 94.5,57.5 Z"/></g>
<g><path style="opacity:0.459" fill="#1f91c0" d="M 130.5,57.5 C 132.262,58.2623 133.262,59.5956 133.5,61.5C 131.738,60.7377 130.738,59.4044 130.5,57.5 Z"/></g>
<g><path style="opacity:0.412" fill="#1f91c0" d="M 64.5,58.5 C 64.2624,60.4044 63.2624,61.7377 61.5,62.5C 61.7376,60.5956 62.7376,59.2623 64.5,58.5 Z"/></g>
<g><path style="opacity:0.008" fill="#1f91c0" d="M 126.5,60.5 C 127.906,60.9731 128.573,61.9731 128.5,63.5C 127.094,63.0269 126.427,62.0269 126.5,60.5 Z"/></g>
<g><path style="opacity:0.004" fill="#1f91c0" d="M 68.5,61.5 C 68.573,63.0269 67.9063,64.0269 66.5,64.5C 66.427,62.9731 67.0937,61.9731 68.5,61.5 Z"/></g>
<g><path style="opacity:0.482" fill="#1f91c0" d="M 133.5,61.5 C 135.262,62.2623 136.262,63.5956 136.5,65.5C 134.738,64.7377 133.738,63.4044 133.5,61.5 Z"/></g>
<g><path style="opacity:0.314" fill="#1f91c0" d="M 61.5,62.5 C 61.2624,64.4044 60.2624,65.7377 58.5,66.5C 58.7376,64.5956 59.7376,63.2623 61.5,62.5 Z"/></g>
<g><path style="opacity:0.004" fill="#1f91c0" d="M 64.5,66.5 C 64.573,68.0269 63.9063,69.0269 62.5,69.5C 62.427,67.9731 63.0937,66.9731 64.5,66.5 Z"/></g>
<g><path style="opacity:0.502" fill="#1f91c0" d="M 136.5,65.5 C 138.262,66.2623 139.262,67.5956 139.5,69.5C 137.738,68.7377 136.738,67.4044 136.5,65.5 Z"/></g>
<g><path style="opacity:0.231" fill="#1f91c0" d="M 58.5,66.5 C 58.573,68.0269 57.9063,69.0269 56.5,69.5C 56.427,67.9731 57.0937,66.9731 58.5,66.5 Z"/></g>
<g><path style="opacity:0.045" fill="#1f91c0" d="M 92.5,71.5 C 97.3158,70.3503 102.316,70.1837 107.5,71C 108.416,71.2784 109.082,71.7784 109.5,72.5C 103.879,71.6463 98.2124,71.313 92.5,71.5 Z"/></g>
<g><path style="opacity:0.999" fill="#1f91c0" d="M 92.5,71.5 C 98.2124,71.313 103.879,71.6463 109.5,72.5C 110.5,72.8333 111.167,73.5 111.5,74.5C 111.427,76.0269 112.094,77.0269 113.5,77.5C 113.427,79.0269 114.094,80.0269 115.5,80.5C 116.26,82.9845 117.26,82.9845 118.5,80.5C 119.478,80.811 120.145,81.4777 120.5,82.5C 120.006,84.0255 119.339,85.3588 118.5,86.5C 116.882,90.5749 115.882,94.9082 115.5,99.5C 114.833,100.833 114.167,100.833 113.5,99.5C 110.619,97.32 107.286,96.32 103.5,96.5C 101.898,94.9261 99.8984,94.2594 97.5,94.5C 96.1667,94.1667 96.1667,93.8333 97.5,93.5C 99.5195,92.4617 99.8528,91.1284 98.5,89.5C 97.3556,87.8998 96.1889,86.2331 95,84.5C 94.2599,83.2506 94.4265,82.2506 95.5,81.5C 96.609,81.4431 97.609,81.1098 98.5,80.5C 98.427,82.0269 99.0937,83.0269 100.5,83.5C 101.674,84.5137 102.34,85.847 102.5,87.5C 102.427,89.0269 103.094,90.0269 104.5,90.5C 105.71,90.9321 106.71,91.5987 107.5,92.5C 108.097,93.1386 108.93,93.472 110,93.5C 111.376,93.3158 112.209,92.6491 112.5,91.5C 112.599,88.7628 112.265,86.0961 111.5,83.5C 111.715,81.8212 111.048,80.8212 109.5,80.5C 108.025,78.5905 106.025,77.4238 103.5,77C 99.8484,76.5014 96.1817,76.3347 92.5,76.5C 90.6203,76.2291 89.287,76.8958 88.5,78.5C 86.6489,80.7759 84.9823,83.1093 83.5,85.5C 81.0882,85.3059 80.0882,83.9726 80.5,81.5C 80.6596,79.847 81.3263,78.5137 82.5,77.5C 84.5,76.1667 86.1667,74.5 87.5,72.5C 88.9187,71.5489 90.5853,71.2155 92.5,71.5 Z"/></g>
<g><path style="opacity:0.62" fill="#1f91c0" d="M 87.5,72.5 C 86.1667,74.5 84.5,76.1667 82.5,77.5C 83.1667,74.8333 84.8333,73.1667 87.5,72.5 Z"/></g>
<g><path style="opacity:0.369" fill="#1f91c0" d="M 111.5,74.5 C 112.906,74.9731 113.573,75.9731 113.5,77.5C 112.094,77.0269 111.427,76.0269 111.5,74.5 Z"/></g>
<g><path style="opacity:0.08" fill="#1f91c0" d="M 92.5,76.5 C 91.4863,77.6737 90.153,78.3404 88.5,78.5C 89.287,76.8958 90.6203,76.2291 92.5,76.5 Z"/></g>
<g><path style="opacity:0.092" fill="#1f91c0" d="M 113.5,77.5 C 114.906,77.9731 115.573,78.9731 115.5,80.5C 114.094,80.0269 113.427,79.0269 113.5,77.5 Z"/></g>
<g><path style="opacity:0.698" fill="#1f91c0" d="M 98.5,80.5 C 97.609,81.1098 96.609,81.4431 95.5,81.5C 96.221,79.6182 97.221,79.2848 98.5,80.5 Z"/></g>
<g><path style="opacity:0.729" fill="#1f91c0" d="M 115.5,80.5 C 116.5,80.5 117.5,80.5 118.5,80.5C 117.26,82.9845 116.26,82.9845 115.5,80.5 Z"/></g>
<g><path style="opacity:0.365" fill="#1f91c0" d="M 98.5,80.5 C 99.9063,80.9731 100.573,81.9731 100.5,83.5C 99.0937,83.0269 98.427,82.0269 98.5,80.5 Z"/></g>
<g><path style="opacity:0.012" fill="#1f91c0" d="M 109.5,80.5 C 111.048,80.8212 111.715,81.8212 111.5,83.5C 110.599,82.7095 109.932,81.7095 109.5,80.5 Z"/></g>
<g><path style="opacity:0.804" fill="#1f91c0" d="M 80.5,81.5 C 80.0882,83.9726 81.0882,85.3059 83.5,85.5C 81.544,86.8012 79.8774,86.3012 78.5,84C 79.0659,83.0053 79.7326,82.172 80.5,81.5 Z"/></g>
<g><path style="opacity:0.412" fill="#1f91c0" d="M 102.5,87.5 C 103.906,87.9731 104.573,88.9731 104.5,90.5C 103.094,90.0269 102.427,89.0269 102.5,87.5 Z"/></g>
<g><path style="opacity:1" fill="#1f91c0" d="M 87.5,95.5 C 87.5,95.8333 87.5,96.1667 87.5,96.5C 87.4203,99.7814 88.087,102.781 89.5,105.5C 89.6463,107.942 88.813,108.609 87,107.5C 86.2828,108.044 85.7828,108.711 85.5,109.5C 84.9213,112.331 83.588,114.664 81.5,116.5C 80.1667,116.167 78.8333,115.833 77.5,115.5C 78.1098,114.609 78.4431,113.609 78.5,112.5C 78.3284,111.508 78.6618,110.842 79.5,110.5C 80.9063,110.027 81.573,109.027 81.5,107.5C 82.3242,104.236 82.6576,100.902 82.5,97.5C 74.4571,98.7095 70.6238,103.376 71,111.5C 72.9604,118.113 76.9604,122.779 83,125.5C 85.2735,124.189 87.4402,124.189 89.5,125.5C 89.5,126.833 89.5,128.167 89.5,129.5C 85.1018,129.706 80.7685,129.373 76.5,128.5C 72.1251,124.759 68.7918,120.092 66.5,114.5C 66.5,111.167 66.5,107.833 66.5,104.5C 66.7329,102.938 67.3995,101.605 68.5,100.5C 71.1667,99.5 71.1667,98.5 68.5,97.5C 68.1667,96.8333 67.8333,96.1667 67.5,95.5C 69.8984,95.7406 71.8984,95.0739 73.5,93.5C 73.8333,93.5 74.1667,93.5 74.5,93.5C 77.1522,93.5905 79.4855,92.9238 81.5,91.5C 82.5832,91.4606 83.5832,91.1272 84.5,90.5C 85.6963,92.1446 86.6963,93.8113 87.5,95.5 Z"/></g>
<g><path style="opacity:0.086" fill="#1f91c0" d="M 87.5,95.5 C 86.6963,93.8113 85.6963,92.1446 84.5,90.5C 83.5832,91.1272 82.5832,91.4606 81.5,91.5C 81.1667,91.5 80.8333,91.5 80.5,91.5C 85.1364,88.3221 87.4697,89.6554 87.5,95.5 Z"/></g>
<g><path style="opacity:0.329" fill="#1f91c0" d="M 98.5,89.5 C 99.8528,91.1284 99.5195,92.4617 97.5,93.5C 97.8333,92.1667 98.1667,90.8333 98.5,89.5 Z"/></g>
<g><path style="opacity:0.925" fill="#1f91c0" d="M 80.5,91.5 C 80.8333,91.5 81.1667,91.5 81.5,91.5C 79.4855,92.9238 77.1522,93.5905 74.5,93.5C 76.2143,92.2616 78.2143,91.595 80.5,91.5 Z"/></g>
<g><path style="opacity:0.067" fill="#1f91c0" d="M 112.5,91.5 C 112.209,92.6491 111.376,93.3158 110,93.5C 108.93,93.472 108.097,93.1386 107.5,92.5C 109.292,92.634 110.958,92.3007 112.5,91.5 Z"/></g>
<g><path style="opacity:0.097" fill="#1f91c0" d="M 60.5,72.5 C 60.1779,94.9085 60.5113,117.242 61.5,139.5C 61.1667,139.5 60.8333,139.5 60.5,139.5C 59.1667,117.167 59.1667,94.8333 60.5,72.5 Z"/></g>
<g><path style="opacity:0.804" fill="#1f91c0" d="M 73.5,93.5 C 71.8984,95.0739 69.8984,95.7406 67.5,95.5C 69.2143,94.2616 71.2143,93.595 73.5,93.5 Z"/></g>
<g><path style="opacity:0.773" fill="#1f91c0" d="M 97.5,94.5 C 99.8984,94.2594 101.898,94.9261 103.5,96.5C 101.214,96.405 99.2143,95.7384 97.5,94.5 Z"/></g>
<g><path style="opacity:0.106" fill="#1f91c0" d="M 118.5,86.5 C 118.142,90.5092 117.642,94.5092 117,98.5C 116.617,99.056 116.117,99.3893 115.5,99.5C 115.882,94.9082 116.882,90.5749 118.5,86.5 Z"/></g>
<g><path style="opacity:0.02" fill="#1f91c0" d="M 67.5,95.5 C 67.8333,96.1667 68.1667,96.8333 68.5,97.5C 66.5759,97.2893 66.2426,96.6226 67.5,95.5 Z"/></g>
<g><path style="opacity:0.882" fill="#1f91c0" d="M 103.5,96.5 C 107.286,96.32 110.619,97.32 113.5,99.5C 109.952,98.8699 106.619,97.8699 103.5,96.5 Z"/></g>
<g><path style="opacity:0.094" fill="#1f91c0" d="M 68.5,97.5 C 71.1667,98.5 71.1667,99.5 68.5,100.5C 68.5,99.5 68.5,98.5 68.5,97.5 Z"/></g>
<g><path style="opacity:0.773" fill="#1f91c0" d="M 87.5,96.5 C 88.913,99.2186 89.5797,102.219 89.5,105.5C 88.087,102.781 87.4203,99.7814 87.5,96.5 Z"/></g>
<g><path style="opacity:0.357" fill="#1f91c0" d="M 123.5,99.5 C 122.766,100.708 122.433,102.041 122.5,103.5C 121.876,103.083 121.543,102.416 121.5,101.5C 121.747,100.287 122.414,99.62 123.5,99.5 Z"/></g>
<g><path style="opacity:0.999" fill="#1f91c0" d="M 125.5,99.5 C 125.427,101.027 126.094,102.027 127.5,102.5C 130.816,107.1 131.316,112.1 129,117.5C 126.752,120.328 124.752,123.328 123,126.5C 121.362,128.734 119.195,130.067 116.5,130.5C 113.552,130.777 110.719,130.444 108,129.5C 107.517,130.448 107.351,131.448 107.5,132.5C 107.5,132.833 107.5,133.167 107.5,133.5C 106.609,132.89 105.609,132.557 104.5,132.5C 100.833,129.5 97.5,126.167 94.5,122.5C 94.5,121.5 94.5,120.5 94.5,119.5C 98.8333,116.167 103.167,112.833 107.5,109.5C 107.5,110.167 107.5,110.833 107.5,111.5C 110.962,112.482 114.629,112.815 118.5,112.5C 118.5,113.5 118.5,114.5 118.5,115.5C 113.821,115.334 109.155,115.501 104.5,116C 103.584,116.278 102.918,116.778 102.5,117.5C 99.5662,120.193 99.8995,122.359 103.5,124C 110.25,126.887 116.084,125.72 121,120.5C 122.777,117.28 124.277,113.947 125.5,110.5C 124.763,108.03 123.763,105.696 122.5,103.5C 122.433,102.041 122.766,100.708 123.5,99.5C 124.167,98.1667 124.833,98.1667 125.5,99.5 Z"/></g>
<g><path style="opacity:0.247" fill="#1f91c0" d="M 125.5,99.5 C 126.906,99.9731 127.573,100.973 127.5,102.5C 126.094,102.027 125.427,101.027 125.5,99.5 Z"/></g>
<g><path style="opacity:0.195" fill="#1f91c0" d="M 134.5,71.5 C 135.222,71.9175 135.722,72.5842 136,73.5C 136.83,95.6705 136.663,117.671 135.5,139.5C 135.167,139.5 134.833,139.5 134.5,139.5C 135.814,116.875 135.814,94.2088 134.5,71.5 Z"/></g>
<g><path style="opacity:0.424" fill="#1f91c0" d="M 66.5,104.5 C 66.5,107.833 66.5,111.167 66.5,114.5C 65.6942,113.003 65.0276,111.336 64.5,109.5C 65.0276,107.664 65.6942,105.997 66.5,104.5 Z"/></g>
<g><path style="opacity:0.282" fill="#1f91c0" d="M 89.5,105.5 C 90.4345,106.568 90.7678,107.901 90.5,109.5C 88.8333,109.5 87.1667,109.5 85.5,109.5C 85.7828,108.711 86.2828,108.044 87,107.5C 88.813,108.609 89.6463,107.942 89.5,105.5 Z"/></g>
<g><path style="opacity:0.157" fill="#1f91c0" d="M 81.5,107.5 C 81.573,109.027 80.9063,110.027 79.5,110.5C 79.427,108.973 80.0937,107.973 81.5,107.5 Z"/></g>
<g><path style="opacity:0.082" fill="#1f91c0" d="M 107.5,108.5 C 108.5,109.5 109.5,110.5 110.5,111.5C 109.5,111.5 108.5,111.5 107.5,111.5C 107.5,110.833 107.5,110.167 107.5,109.5C 107.5,109.167 107.5,108.833 107.5,108.5 Z"/></g>
<g><path style="opacity:0.685" fill="#1f91c0" d="M 118.5,115.5 C 118.5,114.5 118.5,113.5 118.5,112.5C 114.629,112.815 110.962,112.482 107.5,111.5C 108.5,111.5 109.5,111.5 110.5,111.5C 113.119,111.768 115.619,111.435 118,110.5C 119.677,112.148 119.844,113.815 118.5,115.5 Z"/></g>
<g><path style="opacity:0.11" fill="#1f91c0" d="M 78.5,112.5 C 78.4431,113.609 78.1098,114.609 77.5,115.5C 76.2848,114.221 76.6182,113.221 78.5,112.5 Z"/></g>
<g><path style="opacity:0.863" fill="#1f91c0" d="M 107.5,108.5 C 107.5,108.833 107.5,109.167 107.5,109.5C 103.167,112.833 98.8333,116.167 94.5,119.5C 97.9629,115.536 101.63,111.702 105.5,108C 106.437,107.308 107.103,107.475 107.5,108.5 Z"/></g>
<g><path style="opacity:0.227" fill="#1f91c0" d="M 118.5,115.5 C 113.319,116.315 107.986,116.982 102.5,117.5C 102.918,116.778 103.584,116.278 104.5,116C 109.155,115.501 113.821,115.334 118.5,115.5 Z"/></g>
<g><path style="opacity:0.208" fill="#1f91c0" d="M 77.5,115.5 C 78.8333,115.833 80.1667,116.167 81.5,116.5C 79.8716,117.853 78.5383,117.519 77.5,115.5 Z"/></g>
<g><path style="opacity:0.51" fill="#1f91c0" d="M 94.5,119.5 C 94.5,120.5 94.5,121.5 94.5,122.5C 91.8333,121.5 91.8333,120.5 94.5,119.5 Z"/></g>
<g><path style="opacity:0.736" fill="#1f91c0" d="M 139.5,69.5 C 140.222,69.9175 140.722,70.5842 141,71.5C 141.83,95.6702 141.663,119.67 140.5,143.5C 140.167,143.5 139.833,143.5 139.5,143.5C 139.5,118.833 139.5,94.1667 139.5,69.5 Z"/></g>
<g><path style="opacity:0.725" fill="#1f91c0" d="M 89.5,125.5 C 91.8632,127.083 91.8632,128.916 89.5,131C 86.8333,131.667 84.1667,131.667 81.5,131C 79.3474,130.901 77.6808,130.067 76.5,128.5C 80.7685,129.373 85.1018,129.706 89.5,129.5C 89.5,128.167 89.5,126.833 89.5,125.5 Z"/></g>
<g><path style="opacity:0.082" fill="#1f91c0" d="M 116.5,130.5 C 113.61,131.245 110.61,131.912 107.5,132.5C 107.351,131.448 107.517,130.448 108,129.5C 110.719,130.444 113.552,130.777 116.5,130.5 Z"/></g>
<g><path style="opacity:0.161" fill="#1f91c0" d="M 104.5,132.5 C 105.609,132.557 106.609,132.89 107.5,133.5C 106.221,134.715 105.221,134.382 104.5,132.5 Z"/></g>
<g><path style="opacity:0.721" fill="#1f91c0" d="M 134.5,139.5 C 134.833,139.5 135.167,139.5 135.5,139.5C 110.5,140.833 85.5,140.833 60.5,139.5C 60.8333,139.5 61.1667,139.5 61.5,139.5C 85.8592,138.978 110.193,138.978 134.5,139.5 Z"/></g>
<g><path style="opacity:0.088" fill="#1f91c0" d="M 55.5,71.5 C 55.5,95.5 55.5,119.5 55.5,143.5C 83.5,143.5 111.5,143.5 139.5,143.5C 139.833,143.5 140.167,143.5 140.5,143.5C 112.005,144.498 83.3382,144.831 54.5,144.5C 54.169,119.994 54.5024,95.6609 55.5,71.5 Z"/></g>
</svg>
