<?xml version="1.0" encoding="UTF-8"?>
<!DOCTYPE svg PUBLIC "-//W3C//DTD SVG 1.1//EN" "http://www.w3.org/Graphics/SVG/1.1/DTD/svg11.dtd">
<svg xmlns="http://www.w3.org/2000/svg" version="1.1" width="197px" height="173px" style="shape-rendering:geometricPrecision; text-rendering:geometricPrecision; image-rendering:optimizeQuality; fill-rule:evenodd; clip-rule:evenodd" xmlns:xlink="http://www.w3.org/1999/xlink">
<g><path style="opacity:0.129" fill="#1f91c0" d="M 89.5,26.5 C 86.715,25.9162 85.0483,26.9162 84.5,29.5C 83.3428,26.1431 84.6761,24.6431 88.5,25C 89.056,25.3826 89.3893,25.8826 89.5,26.5 Z"/></g>
<g><path style="opacity:0.631" fill="#1f91c0" d="M 113.5,26.5 C 112.167,26.5 110.833,26.5 109.5,26.5C 110.665,23.9781 111.998,23.9781 113.5,26.5 Z"/></g>
<g><path style="opacity:0.997" fill="#1f91c0" d="M 89.5,26.5 C 90.8333,28.1667 90.8333,29.8333 89.5,31.5C 88.1667,31.5 86.8333,31.5 85.5,31.5C 84.6618,31.1583 84.3284,30.4916 84.5,29.5C 85.0483,26.9162 86.715,25.9162 89.5,26.5 Z"/></g>
<g><path style="opacity:0.988" fill="#1f91c0" d="M 109.5,26.5 C 110.833,26.5 112.167,26.5 113.5,26.5C 112.962,28.1172 112.629,29.7839 112.5,31.5C 111.5,32.8333 110.5,32.8333 109.5,31.5C 109.5,29.8333 109.5,28.1667 109.5,26.5 Z"/></g>
<g><path style="opacity:0.824" fill="#1f91c0" d="M 109.5,26.5 C 109.5,28.1667 109.5,29.8333 109.5,31.5C 107.149,30.0839 107.149,28.4172 109.5,26.5 Z"/></g>
<g><path style="opacity:0.541" fill="#1f91c0" d="M 113.5,26.5 C 114.678,28.3379 114.345,30.0045 112.5,31.5C 112.629,29.7839 112.962,28.1172 113.5,26.5 Z"/></g>
<g><path style="opacity:0.702" fill="#1f91c0" d="M 85.5,31.5 C 86.8333,31.5 88.1667,31.5 89.5,31.5C 87.9678,33.7813 86.6344,33.7813 85.5,31.5 Z"/></g>
<g><path style="opacity:0.073" fill="#1f91c0" d="M 69.5,41.5 C 68.1154,40.4264 66.9487,39.0931 66,37.5C 65.2917,38.3805 64.4584,39.0472 63.5,39.5C 63.999,36.6108 65.499,35.9442 68,37.5C 68.7914,38.745 69.2914,40.0783 69.5,41.5 Z"/></g>
<g><path style="opacity:1" fill="#1f91c0" d="M 69.5,41.5 C 70.5075,43.268 69.8408,44.6013 67.5,45.5C 65.8513,44.3523 64.3513,43.019 63,41.5C 62.3083,40.5632 62.475,39.8966 63.5,39.5C 64.4584,39.0472 65.2917,38.3805 66,37.5C 66.9487,39.0931 68.1154,40.4264 69.5,41.5 Z"/></g>
<g><path style="opacity:0.059" fill="#1f91c0" d="M 92.5,38.5 C 90.7857,39.7384 88.7857,40.405 86.5,40.5C 88.1016,38.9261 90.1016,38.2594 92.5,38.5 Z"/></g>
<g><path style="opacity:0.999" fill="#1f91c0" d="M 107.5,39.5 C 109.214,40.7384 111.214,41.405 113.5,41.5C 114.492,41.3284 115.158,41.6618 115.5,42.5C 115.973,43.9063 116.973,44.573 118.5,44.5C 119.167,44.5 119.5,44.8333 119.5,45.5C 120.833,47.5 122.5,49.1667 124.5,50.5C 124.738,52.4044 125.738,53.7377 127.5,54.5C 128.338,54.8417 128.672,55.5084 128.5,56.5C 128.12,58.698 128.787,60.3646 130.5,61.5C 134.111,72.7639 132.445,83.0972 125.5,92.5C 123.738,93.2623 122.738,94.5956 122.5,96.5C 118.983,101.86 117.15,107.86 117,114.5C 115.384,115.801 113.884,115.801 112.5,114.5C 112.365,109.047 113.032,103.714 114.5,98.5C 115.906,98.0269 116.573,97.0269 116.5,95.5C 116.833,94.5 117.5,93.8333 118.5,93.5C 120.262,92.7377 121.262,91.4044 121.5,89.5C 121.66,87.847 122.326,86.5137 123.5,85.5C 125.213,84.3646 125.88,82.698 125.5,80.5C 127.671,69.0462 125.004,59.0462 117.5,50.5C 117.027,49.0937 116.027,48.427 114.5,48.5C 113.089,46.461 111.089,45.461 108.5,45.5C 99.751,43.5041 91.4177,44.5041 83.5,48.5C 81.9731,48.427 80.9731,49.0937 80.5,50.5C 71.03,61.1324 69.03,73.1324 74.5,86.5C 74.427,88.0269 75.0937,89.0269 76.5,89.5C 76.427,91.0269 77.0937,92.0269 78.5,92.5C 79.5,92.8333 80.1667,93.5 80.5,94.5C 80.427,96.0269 81.0937,97.0269 82.5,97.5C 83.9063,97.9731 84.573,98.9731 84.5,100.5C 85.1266,105.141 85.4599,109.807 85.5,114.5C 84.1667,114.5 82.8333,114.5 81.5,114.5C 81.3644,107.433 79.031,101.1 74.5,95.5C 74.573,93.9731 73.9063,92.9731 72.5,92.5C 68.8896,88.6036 66.8896,83.9369 66.5,78.5C 66.2011,71.7109 66.8678,65.0442 68.5,58.5C 68.6596,56.847 69.3263,55.5137 70.5,54.5C 71.9063,54.0269 72.573,53.0269 72.5,51.5C 74.8333,49.8333 76.8333,47.8333 78.5,45.5C 80.0269,45.573 81.0269,44.9063 81.5,43.5C 83.0269,43.573 84.0269,42.9063 84.5,41.5C 84.8417,40.6618 85.5084,40.3284 86.5,40.5C 88.7857,40.405 90.7857,39.7384 92.5,38.5C 94.134,37.8389 95.9674,37.5056 98,37.5C 101.451,37.4205 104.618,38.0872 107.5,39.5 Z"/></g>
<g><path style="opacity:0.045" fill="#1f91c0" d="M 107.5,39.5 C 109.898,39.2594 111.898,39.9261 113.5,41.5C 111.214,41.405 109.214,40.7384 107.5,39.5 Z"/></g>
<g><path style="opacity:0.584" fill="#1f91c0" d="M 131.5,38.5 C 129.599,39.935 129.266,41.6017 130.5,43.5C 126.516,41.4019 126.849,39.7352 131.5,38.5 Z"/></g>
<g><path style="opacity:0.982" fill="#1f91c0" d="M 130.5,43.5 C 129.266,41.6017 129.599,39.935 131.5,38.5C 133.314,37.2598 134.314,37.9265 134.5,40.5C 134.043,43.3519 132.709,44.3519 130.5,43.5 Z"/></g>
<g><path style="opacity:0.608" fill="#1f91c0" d="M 84.5,41.5 C 84.0269,42.9063 83.0269,43.573 81.5,43.5C 81.9731,42.0937 82.9731,41.427 84.5,41.5 Z"/></g>
<g><path style="opacity:0.016" fill="#1f91c0" d="M 115.5,42.5 C 117.027,42.427 118.027,43.0937 118.5,44.5C 116.973,44.573 115.973,43.9063 115.5,42.5 Z"/></g>
<g><path style="opacity:0.686" fill="#1f91c0" d="M 81.5,43.5 C 81.0269,44.9063 80.0269,45.573 78.5,45.5C 78.9731,44.0937 79.9731,43.427 81.5,43.5 Z"/></g>
<g><path style="opacity:0.02" fill="#1f91c0" d="M 119.5,45.5 C 122.167,46.1667 123.833,47.8333 124.5,50.5C 122.5,49.1667 120.833,47.5 119.5,45.5 Z"/></g>
<g><path style="opacity:0.047" fill="#1f91c0" d="M 108.5,45.5 C 111.089,45.461 113.089,46.461 114.5,48.5C 112.181,48.0075 110.181,47.0075 108.5,45.5 Z"/></g>
<g><path style="opacity:0.325" fill="#1f91c0" d="M 78.5,45.5 C 76.8333,47.8333 74.8333,49.8333 72.5,51.5C 73.5,48.5 75.5,46.5 78.5,45.5 Z"/></g>
<g><path style="opacity:0.108" fill="#1f91c0" d="M 107.5,51.5 C 105.906,51.0805 104.406,50.4138 103,49.5C 102.098,49.7432 101.265,50.0766 100.5,50.5C 103.047,47.8006 105.38,48.134 107.5,51.5 Z"/></g>
<g><path style="opacity:0.004" fill="#1f91c0" d="M 83.5,48.5 C 83.0269,49.9063 82.0269,50.573 80.5,50.5C 80.9731,49.0937 81.9731,48.427 83.5,48.5 Z"/></g>
<g><path style="opacity:0.259" fill="#1f91c0" d="M 114.5,48.5 C 116.027,48.427 117.027,49.0937 117.5,50.5C 115.973,50.573 114.973,49.9063 114.5,48.5 Z"/></g>
<g><path style="opacity:0.999" fill="#1f91c0" d="M 107.5,51.5 C 108.5,51.8333 109.167,52.5 109.5,53.5C 110.08,55.7488 111.413,57.4154 113.5,58.5C 113.427,60.0269 114.094,61.0269 115.5,61.5C 116.11,62.391 116.443,63.391 116.5,64.5C 117.833,69.8333 117.833,75.1667 116.5,80.5C 116.573,82.0269 115.906,83.0269 114.5,83.5C 113.5,83.8333 112.833,84.5 112.5,85.5C 111.738,87.2624 110.404,88.2624 108.5,88.5C 106.847,88.6596 105.514,89.3263 104.5,90.5C 102.293,91.8699 100.626,91.2032 99.5,88.5C 99.6236,87.8933 99.9569,87.56 100.5,87.5C 102.027,87.573 103.027,86.9063 103.5,85.5C 105.027,85.573 106.027,84.9063 106.5,83.5C 108.027,83.573 109.027,82.9063 109.5,81.5C 110.906,81.0269 111.573,80.0269 111.5,78.5C 114.09,74.1959 114.09,69.8625 111.5,65.5C 110.18,63.5368 108.846,61.5368 107.5,59.5C 107.058,56.6679 105.725,55.6679 103.5,56.5C 101.596,56.7376 100.262,57.7376 99.5,59.5C 97.8333,61.8333 95.8333,63.8333 93.5,65.5C 91.5,65.5 90.5,66.5 90.5,68.5C 87.3588,73.0891 86.6921,78.0891 88.5,83.5C 88.6941,85.9118 90.0274,86.9118 92.5,86.5C 93.2967,82.7768 94.2967,79.1101 95.5,75.5C 97.2766,72.4954 98.2766,69.1621 98.5,65.5C 98.5,65.1667 98.5,64.8333 98.5,64.5C 102.827,64.2518 104.161,65.9184 102.5,69.5C 101.237,74.1256 100.071,78.7923 99,83.5C 98.9424,89.5882 98.7757,95.5882 98.5,101.5C 97.391,101.557 96.391,101.89 95.5,102.5C 95.5979,100.447 94.9313,98.7804 93.5,97.5C 92.5987,96.7095 91.9321,95.7095 91.5,94.5C 89.5698,90.8998 86.9031,87.8998 83.5,85.5C 82.0807,81.9852 81.414,78.3186 81.5,74.5C 82.5375,73.0697 83.2041,71.403 83.5,69.5C 84.9063,69.0269 85.573,68.0269 85.5,66.5C 87.1667,65.5 88.5,64.1667 89.5,62.5C 91.5,59.8333 93.8333,57.5 96.5,55.5C 98.5869,54.4154 99.9202,52.7488 100.5,50.5C 101.265,50.0766 102.098,49.7432 103,49.5C 104.406,50.4138 105.906,51.0805 107.5,51.5 Z"/></g>
<g><path style="opacity:0.843" fill="#1f91c0" d="M 124.5,50.5 C 126.262,51.2623 127.262,52.5956 127.5,54.5C 125.738,53.7377 124.738,52.4044 124.5,50.5 Z"/></g>
<g><path style="opacity:0.247" fill="#1f91c0" d="M 72.5,51.5 C 72.573,53.0269 71.9063,54.0269 70.5,54.5C 70.427,52.9731 71.0937,51.9731 72.5,51.5 Z"/></g>
<g><path style="opacity:0.29" fill="#1f91c0" d="M 100.5,50.5 C 99.9202,52.7488 98.5869,54.4154 96.5,55.5C 97.0798,53.2512 98.4131,51.5846 100.5,50.5 Z"/></g>
<g><path style="opacity:0.773" fill="#1f91c0" d="M 109.5,53.5 C 111.587,54.5846 112.92,56.2512 113.5,58.5C 111.413,57.4154 110.08,55.7488 109.5,53.5 Z"/></g>
<g><path style="opacity:0.482" fill="#1f91c0" d="M 103.5,56.5 C 105.725,55.6679 107.058,56.6679 107.5,59.5C 106.167,58.5 104.833,57.5 103.5,56.5 Z"/></g>
<g><path style="opacity:0.008" fill="#1f91c0" d="M 103.5,56.5 C 102.738,58.2624 101.404,59.2624 99.5,59.5C 100.262,57.7376 101.596,56.7376 103.5,56.5 Z"/></g>
<g><path style="opacity:0.776" fill="#1f91c0" d="M 146.5,58.5 C 144.565,59.1495 142.565,59.4828 140.5,59.5C 142.32,57.5389 144.32,57.2056 146.5,58.5 Z"/></g>
<g><path style="opacity:0.99" fill="#1f91c0" d="M 146.5,58.5 C 146.838,62.1507 145.172,63.8174 141.5,63.5C 141.167,62.1667 140.833,60.8333 140.5,59.5C 142.565,59.4828 144.565,59.1495 146.5,58.5 Z"/></g>
<g><path style="opacity:0.045" fill="#1f91c0" d="M 113.5,58.5 C 114.906,58.9731 115.573,59.9731 115.5,61.5C 114.094,61.0269 113.427,60.0269 113.5,58.5 Z"/></g>
<g><path style="opacity:0.988" fill="#1f91c0" d="M 128.5,56.5 C 129.931,57.7804 130.598,59.4471 130.5,61.5C 128.787,60.3646 128.12,58.698 128.5,56.5 Z"/></g>
<g><path style="opacity:0.983" fill="#1f91c0" d="M 57.5,63.5 C 55.8333,63.5 54.1667,63.5 52.5,63.5C 51.2893,58.2562 53.1227,57.2562 58,60.5C 58.7401,61.7494 58.5735,62.7494 57.5,63.5 Z"/></g>
<g><path style="opacity:0.114" fill="#1f91c0" d="M 140.5,59.5 C 140.833,60.8333 141.167,62.1667 141.5,63.5C 139.481,62.4617 139.147,61.1284 140.5,59.5 Z"/></g>
<g><path style="opacity:0.925" fill="#1f91c0" d="M 52.5,63.5 C 54.1667,63.5 55.8333,63.5 57.5,63.5C 56.0839,65.8507 54.4172,65.8507 52.5,63.5 Z"/></g>
<g><path style="opacity:0.369" fill="#1f91c0" d="M 89.5,62.5 C 88.5,64.1667 87.1667,65.5 85.5,66.5C 85.8333,64.1667 87.1667,62.8333 89.5,62.5 Z"/></g>
<g><path style="opacity:0.049" fill="#1f91c0" d="M 98.5,64.5 C 100.223,63.193 102.057,63.193 104,64.5C 104.599,66.5348 104.099,68.2015 102.5,69.5C 104.161,65.9184 102.827,64.2518 98.5,64.5 Z"/></g>
<g><path style="opacity:0.114" fill="#1f91c0" d="M 146.5,58.5 C 149.421,61.9878 148.421,63.9878 143.5,64.5C 142.584,64.4573 141.917,64.1239 141.5,63.5C 145.172,63.8174 146.838,62.1507 146.5,58.5 Z"/></g>
<g><path style="opacity:0.592" fill="#1f91c0" d="M 68.5,58.5 C 66.8678,65.0442 66.2011,71.7109 66.5,78.5C 65.3516,74.0189 65.1849,69.3522 66,64.5C 66.5662,62.2774 67.3995,60.2774 68.5,58.5 Z"/></g>
<g><path style="opacity:0.024" fill="#1f91c0" d="M 93.5,65.5 C 92.8333,66.8333 91.8333,67.8333 90.5,68.5C 90.5,66.5 91.5,65.5 93.5,65.5 Z"/></g>
<g><path style="opacity:0.51" fill="#1f91c0" d="M 85.5,66.5 C 85.573,68.0269 84.9063,69.0269 83.5,69.5C 83.427,67.9731 84.0937,66.9731 85.5,66.5 Z"/></g>
<g><path style="opacity:0.565" fill="#1f91c0" d="M 83.5,69.5 C 83.2041,71.403 82.5375,73.0697 81.5,74.5C 81.1201,72.302 81.7868,70.6354 83.5,69.5 Z"/></g>
<g><path style="opacity:0.086" fill="#1f91c0" d="M 116.5,64.5 C 119.167,69.8333 119.167,75.1667 116.5,80.5C 117.833,75.1667 117.833,69.8333 116.5,64.5 Z"/></g>
<g><path style="opacity:0.435" fill="#1f91c0" d="M 111.5,65.5 C 114.09,69.8625 114.09,74.1959 111.5,78.5C 112.113,74.312 112.113,69.9787 111.5,65.5 Z"/></g>
<g><path style="opacity:0.769" fill="#1f91c0" d="M 98.5,65.5 C 98.2766,69.1621 97.2766,72.4954 95.5,75.5C 95.5,75.1667 95.5,74.8333 95.5,74.5C 95.5275,71.0836 96.5275,68.0836 98.5,65.5 Z"/></g>
<g><path style="opacity:0.074" fill="#1f91c0" d="M 81.5,74.5 C 81.414,78.3186 82.0807,81.9852 83.5,85.5C 82.0337,84.653 81.2004,83.3197 81,81.5C 80.2042,78.9615 80.3709,76.6282 81.5,74.5 Z"/></g>
<g><path style="opacity:0.224" fill="#1f91c0" d="M 111.5,78.5 C 111.573,80.0269 110.906,81.0269 109.5,81.5C 109.427,79.9731 110.094,78.9731 111.5,78.5 Z"/></g>
<g><path style="opacity:0.42" fill="#1f91c0" d="M 109.5,81.5 C 109.027,82.9063 108.027,83.573 106.5,83.5C 106.973,82.0937 107.973,81.427 109.5,81.5 Z"/></g>
<g><path style="opacity:0.999" fill="#1f91c0" d="M 145.5,82.5 C 147.18,84.7264 146.847,86.3931 144.5,87.5C 143.791,86.596 142.791,86.2627 141.5,86.5C 141.5,85.1667 141.5,83.8333 141.5,82.5C 142.833,81.1667 144.167,81.1667 145.5,82.5 Z"/></g>
<g><path style="opacity:0.993" fill="#1f91c0" d="M 52.5,88.5 C 52.366,86.7085 52.6993,85.0418 53.5,83.5C 56.3316,81.8887 58.3316,82.722 59.5,86C 58.3679,88.0687 56.5346,89.2354 54,89.5C 53.2352,89.4301 52.7352,89.0967 52.5,88.5 Z"/></g>
<g><path style="opacity:0.875" fill="#1f91c0" d="M 125.5,80.5 C 125.88,82.698 125.213,84.3646 123.5,85.5C 123.402,83.4471 124.069,81.7804 125.5,80.5 Z"/></g>
<g><path style="opacity:0.361" fill="#1f91c0" d="M 106.5,83.5 C 106.027,84.9063 105.027,85.573 103.5,85.5C 103.973,84.0937 104.973,83.427 106.5,83.5 Z"/></g>
<g><path style="opacity:0.004" fill="#1f91c0" d="M 114.5,83.5 C 114.5,84.8333 113.833,85.5 112.5,85.5C 112.833,84.5 113.5,83.8333 114.5,83.5 Z"/></g>
<g><path style="opacity:0.169" fill="#1f91c0" d="M 53.5,83.5 C 52.6993,85.0418 52.366,86.7085 52.5,88.5C 51.8614,87.9032 51.528,87.0698 51.5,86C 51.6842,84.6244 52.3509,83.7911 53.5,83.5 Z"/></g>
<g><path style="opacity:0.286" fill="#1f91c0" d="M 95.5,74.5 C 95.5,74.8333 95.5,75.1667 95.5,75.5C 94.2967,79.1101 93.2967,82.7768 92.5,86.5C 90.0274,86.9118 88.6941,85.9118 88.5,83.5C 89.4584,83.9528 90.2917,84.6195 91,85.5C 92.0377,81.5317 93.5377,77.865 95.5,74.5 Z"/></g>
<g><path style="opacity:0.105" fill="#1f91c0" d="M 145.5,82.5 C 148.513,83.3559 149.18,85.1892 147.5,88C 146.251,88.7401 145.251,88.5735 144.5,87.5C 146.847,86.3931 147.18,84.7264 145.5,82.5 Z"/></g>
<g><path style="opacity:0.02" fill="#1f91c0" d="M 83.5,85.5 C 86.9031,87.8998 89.5698,90.8998 91.5,94.5C 88.0969,92.1002 85.4302,89.1002 83.5,85.5 Z"/></g>
<g><path style="opacity:0.69" fill="#1f91c0" d="M 103.5,85.5 C 103.027,86.9063 102.027,87.573 100.5,87.5C 100.973,86.0937 101.973,85.427 103.5,85.5 Z"/></g>
<g><path style="opacity:0.136" fill="#1f91c0" d="M 141.5,82.5 C 141.5,83.8333 141.5,85.1667 141.5,86.5C 142.791,86.2627 143.791,86.596 144.5,87.5C 139.492,87.7418 138.492,86.0751 141.5,82.5 Z"/></g>
<g><path style="opacity:0.243" fill="#1f91c0" d="M 74.5,86.5 C 75.9063,86.9731 76.573,87.9731 76.5,89.5C 75.0937,89.0269 74.427,88.0269 74.5,86.5 Z"/></g>
<g><path style="opacity:0.055" fill="#1f91c0" d="M 108.5,88.5 C 107.713,90.1042 106.38,90.7709 104.5,90.5C 105.514,89.3263 106.847,88.6596 108.5,88.5 Z"/></g>
<g><path style="opacity:0.251" fill="#1f91c0" d="M 76.5,89.5 C 77.9063,89.9731 78.573,90.9731 78.5,92.5C 77.0937,92.0269 76.427,91.0269 76.5,89.5 Z"/></g>
<g><path style="opacity:0.361" fill="#1f91c0" d="M 121.5,89.5 C 121.262,91.4044 120.262,92.7377 118.5,93.5C 118.738,91.5956 119.738,90.2623 121.5,89.5 Z"/></g>
<g><path style="opacity:0.024" fill="#1f91c0" d="M 72.5,92.5 C 73.9063,92.9731 74.573,93.9731 74.5,95.5C 73.0937,95.0269 72.427,94.0269 72.5,92.5 Z"/></g>
<g><path style="opacity:0.047" fill="#1f91c0" d="M 125.5,92.5 C 125.262,94.4044 124.262,95.7377 122.5,96.5C 122.738,94.5956 123.738,93.2623 125.5,92.5 Z"/></g>
<g><path style="opacity:0.784" fill="#1f91c0" d="M 80.5,94.5 C 81.9063,94.9731 82.573,95.9731 82.5,97.5C 81.0937,97.0269 80.427,96.0269 80.5,94.5 Z"/></g>
<g><path style="opacity:0.204" fill="#1f91c0" d="M 116.5,95.5 C 116.573,97.0269 115.906,98.0269 114.5,98.5C 114.427,96.9731 115.094,95.9731 116.5,95.5 Z"/></g>
<g><path style="opacity:0.133" fill="#1f91c0" d="M 93.5,97.5 C 94.9313,98.7804 95.5979,100.447 95.5,102.5C 94.0687,101.22 93.4021,99.5529 93.5,97.5 Z"/></g>
<g><path style="opacity:0.988" fill="#1f91c0" d="M 114.5,98.5 C 113.032,103.714 112.365,109.047 112.5,114.5C 111.357,111.024 111.19,107.358 112,103.5C 112.374,101.509 113.207,99.842 114.5,98.5 Z"/></g>
<g><path style="opacity:0.345" fill="#1f91c0" d="M 135.5,107.5 C 134.49,103.365 132.49,102.365 129.5,104.5C 131.269,100.645 133.436,100.645 136,104.5C 136.74,105.749 136.573,106.749 135.5,107.5 Z"/></g>
<g><path style="opacity:0.071" fill="#1f91c0" d="M 98.5,101.5 C 97.779,103.382 96.779,103.715 95.5,102.5C 96.391,101.89 97.391,101.557 98.5,101.5 Z"/></g>
<g><path style="opacity:0.993" fill="#1f91c0" d="M 135.5,107.5 C 134.779,109.382 133.779,109.715 132.5,108.5C 131.5,107.167 130.5,105.833 129.5,104.5C 132.49,102.365 134.49,103.365 135.5,107.5 Z"/></g>
<g><path style="opacity:0.999" fill="#1f91c0" d="M 69.5,103.5 C 69.5569,104.609 69.8902,105.609 70.5,106.5C 69.2058,107.29 68.0391,108.29 67,109.5C 64.78,106.336 65.6133,104.336 69.5,103.5 Z"/></g>
<g><path style="opacity:0.059" fill="#1f91c0" d="M 129.5,104.5 C 130.5,105.833 131.5,107.167 132.5,108.5C 129.668,108.058 128.668,106.725 129.5,104.5 Z"/></g>
<g><path style="opacity:0.125" fill="#1f91c0" d="M 69.5,103.5 C 71.3818,104.221 71.7152,105.221 70.5,106.5C 69.8902,105.609 69.5569,104.609 69.5,103.5 Z"/></g>
<g><path style="opacity:0.107" fill="#1f91c0" d="M 84.5,100.5 C 86.2377,105.217 86.9044,110.217 86.5,115.5C 84.5853,115.784 82.9187,115.451 81.5,114.5C 82.8333,114.5 84.1667,114.5 85.5,114.5C 85.4599,109.807 85.1266,105.141 84.5,100.5 Z"/></g>
<g><path style="opacity:0.153" fill="#1f91c0" d="M 69.5,103.5 C 65.6133,104.336 64.78,106.336 67,109.5C 68.0391,108.29 69.2058,107.29 70.5,106.5C 68.5335,111.543 66.2001,111.71 63.5,107C 64.6281,103.61 66.6281,102.443 69.5,103.5 Z"/></g>
<g><path style="opacity:0.797" fill="#1f91c0" d="M 116.5,117.5 C 116.5,117.833 116.5,118.167 116.5,118.5C 104.833,118.5 93.1667,118.5 81.5,118.5C 81.5,118.167 81.5,117.833 81.5,117.5C 93.1667,116.167 104.833,116.167 116.5,117.5 Z"/></g>
<g><path style="opacity:0.064" fill="#1f91c0" d="M 81.5,117.5 C 81.5,117.833 81.5,118.167 81.5,118.5C 81.5,119.5 81.5,120.5 81.5,121.5C 93.1667,121.5 104.833,121.5 116.5,121.5C 116.5,120.5 116.5,119.5 116.5,118.5C 116.5,118.167 116.5,117.833 116.5,117.5C 117.451,118.919 117.784,120.585 117.5,122.5C 105.167,122.5 92.8333,122.5 80.5,122.5C 80.2155,120.585 80.5489,118.919 81.5,117.5 Z"/></g>
<g><path style="opacity:0.999" fill="#1f91c0" d="M 81.5,118.5 C 93.1667,118.5 104.833,118.5 116.5,118.5C 116.5,119.5 116.5,120.5 116.5,121.5C 104.833,121.5 93.1667,121.5 81.5,121.5C 81.5,120.5 81.5,119.5 81.5,118.5 Z"/></g>
<g><path style="opacity:0.99" fill="#1f91c0" d="M 116.5,128.5 C 116.5,129.5 116.5,130.5 116.5,131.5C 104.833,131.5 93.1667,131.5 81.5,131.5C 80.1991,130.116 80.1991,128.616 81.5,127C 92.8333,126.333 104.167,126.333 115.5,127C 116.056,127.383 116.389,127.883 116.5,128.5 Z"/></g>
<g><path style="opacity:0.13" fill="#1f91c0" d="M 116.5,128.5 C 117.434,129.568 117.768,130.901 117.5,132.5C 105.322,132.828 93.3217,132.495 81.5,131.5C 93.1667,131.5 104.833,131.5 116.5,131.5C 116.5,130.5 116.5,129.5 116.5,128.5 Z"/></g>
<g><path style="opacity:0.998" fill="#1f91c0" d="M 94.5,136.5 C 94.5,138.5 95.5,139.5 97.5,139.5C 100.084,139.431 102.084,138.265 103.5,136C 105.81,135.503 108.143,135.337 110.5,135.5C 110.762,136.978 110.429,138.311 109.5,139.5C 108.261,139.942 107.261,140.609 106.5,141.5C 103.185,146.052 99.1855,146.719 94.5,143.5C 92.5739,141.707 90.2406,140.707 87.5,140.5C 85.7868,139.365 85.1201,137.698 85.5,135.5C 88.7131,135.19 91.7131,135.523 94.5,136.5 Z"/></g>
<g><path style="opacity:0.503" fill="#1f91c0" d="M 110.5,135.5 C 112.599,136.37 112.932,137.703 111.5,139.5C 110.15,140.95 108.484,141.617 106.5,141.5C 107.261,140.609 108.261,139.942 109.5,139.5C 110.429,138.311 110.762,136.978 110.5,135.5 Z"/></g>
<g><path style="opacity:0.702" fill="#1f91c0" d="M 94.5,136.5 C 95.8333,137.167 96.8333,138.167 97.5,139.5C 95.5,139.5 94.5,138.5 94.5,136.5 Z"/></g>
<g><path style="opacity:0.067" fill="#1f91c0" d="M 87.5,140.5 C 90.2406,140.707 92.5739,141.707 94.5,143.5C 91.7594,143.293 89.4261,142.293 87.5,140.5 Z"/></g>
</svg>
