<?xml version="1.0" encoding="UTF-8"?>
<!DOCTYPE svg PUBLIC "-//W3C//DTD SVG 1.1//EN" "http://www.w3.org/Graphics/SVG/1.1/DTD/svg11.dtd">
<svg xmlns="http://www.w3.org/2000/svg" version="1.1" width="205px" height="173px" style="shape-rendering:geometricPrecision; text-rendering:geometricPrecision; image-rendering:optimizeQuality; fill-rule:evenodd; clip-rule:evenodd" xmlns:xlink="http://www.w3.org/1999/xlink">
<g><path style="opacity:0.159" fill="#1f91c0" d="M 71.5,17.5 C 63.4953,16.2826 56.4953,18.2826 50.5,23.5C 50.5106,21.9826 51.1772,20.8159 52.5,20C 58.6329,16.5781 64.9662,15.7448 71.5,17.5 Z"/></g>
<g><path style="opacity:0.999" fill="#1f91c0" d="M 93.5,17.5 C 94.7804,18.9313 96.4471,19.5979 98.5,19.5C 99.1667,19.5 99.5,19.8333 99.5,20.5C 100.262,22.2624 101.596,23.2624 103.5,23.5C 104.338,23.8417 104.672,24.5084 104.5,25.5C 104.427,27.0269 105.094,28.0269 106.5,28.5C 107.364,29.6883 108.364,30.8549 109.5,32C 112.823,33.0399 115.823,34.5399 118.5,36.5C 120.118,38.785 122.118,40.785 124.5,42.5C 124.427,44.0269 125.094,45.0269 126.5,45.5C 126.5,49.8333 126.5,54.1667 126.5,58.5C 124.408,63.7605 120.741,67.5938 115.5,70C 105.962,72.1525 96.2953,73.3191 86.5,73.5C 84.1432,73.3367 81.8098,73.5034 79.5,74C 78.944,74.3826 78.6107,74.8826 78.5,75.5C 77.1667,75.5 76.5,76.1667 76.5,77.5C 76.5,78.1667 76.1667,78.5 75.5,78.5C 74.8529,79.2739 74.5195,80.2739 74.5,81.5C 74.6399,83.0296 75.3065,84.0296 76.5,84.5C 78.5,84.5 79.5,85.5 79.5,87.5C 79.5275,90.9164 80.5275,93.9164 82.5,96.5C 85.3203,106.113 87.987,115.78 90.5,125.5C 91.1621,129.466 91.4955,133.466 91.5,137.5C 75.672,138.661 59.672,138.828 43.5,138C 42.944,137.617 42.6107,137.117 42.5,136.5C 42.8333,133.833 43.1667,131.167 43.5,128.5C 44.2672,124.673 45.2672,121.006 46.5,117.5C 48.68,114.619 49.68,111.286 49.5,107.5C 49.2322,105.901 49.5655,104.568 50.5,103.5C 52.1628,101.562 52.8294,99.2282 52.5,96.5C 54.1628,94.5615 54.8294,92.2282 54.5,89.5C 55.3636,88.3117 56.3636,87.1451 57.5,86C 61.211,85.8253 64.8776,85.3253 68.5,84.5C 69.7853,81.9795 70.4519,79.3128 70.5,76.5C 71.8173,72.0076 74.8173,69.6742 79.5,69.5C 84.1785,69.6658 88.8452,69.4992 93.5,69C 94.4158,68.7216 95.0825,68.2216 95.5,67.5C 95.8333,67.5 96.1667,67.5 96.5,67.5C 99.4282,67.4349 102.095,66.7682 104.5,65.5C 109.373,64.7827 114.04,63.4494 118.5,61.5C 119.906,61.0269 120.573,60.0269 120.5,58.5C 123.378,49.7429 120.711,43.4096 112.5,39.5C 110.04,38.3657 108.707,39.3657 108.5,42.5C 107.167,43.8333 105.833,43.8333 104.5,42.5C 104.664,39.8127 104.497,37.146 104,34.5C 103.722,33.5842 103.222,32.9175 102.5,32.5C 100.5,28.5 97.5,25.5 93.5,23.5C 88.9915,20.7959 84.6582,21.1292 80.5,24.5C 79.0552,26.0627 77.3885,27.396 75.5,28.5C 73.7839,28.3713 72.1172,28.038 70.5,27.5C 71.4132,25.9139 71.4132,24.4139 70.5,23C 66.8333,22.3333 63.1667,22.3333 59.5,23C 58.0577,23.3768 57.0577,24.2101 56.5,25.5C 55.7095,26.4013 54.7095,27.0679 53.5,27.5C 52.0937,27.9731 51.427,28.9731 51.5,30.5C 51.1667,31.1667 50.8333,31.8333 50.5,32.5C 49.7784,32.9175 49.2784,33.5842 49,34.5C 48.5007,39.4889 48.3341,44.4889 48.5,49.5C 47.0937,49.9731 46.427,50.9731 46.5,52.5C 44.8958,53.287 44.2291,54.6203 44.5,56.5C 44.3677,59.5701 44.701,62.5701 45.5,65.5C 45.8333,67.8333 47.1667,69.1667 49.5,69.5C 50.1667,69.5 50.5,69.8333 50.5,70.5C 51.3007,72.0418 51.634,73.7085 51.5,75.5C 50.5,76.8333 49.5,76.8333 48.5,75.5C 48.0269,74.0937 47.0269,73.427 45.5,73.5C 44.5,71.8333 43.1667,70.5 41.5,69.5C 39.461,68.089 38.461,66.089 38.5,63.5C 38.6159,60.1401 38.9492,56.8067 39.5,53.5C 39.5,53.1667 39.5,52.8333 39.5,52.5C 40.9063,52.0269 41.573,51.0269 41.5,49.5C 42.1174,49.3893 42.6174,49.056 43,48.5C 43.4707,43.1557 43.9707,37.8223 44.5,32.5C 44.6596,30.847 45.3263,29.5137 46.5,28.5C 47.9063,28.0269 48.573,27.0269 48.5,25.5C 48.8333,24.5 49.5,23.8333 50.5,23.5C 56.4953,18.2826 63.4953,16.2826 71.5,17.5C 79.0072,16.8017 86.3406,16.8017 93.5,17.5 Z M 73.5,91.5 C 77.4327,100.632 80.7661,109.966 83.5,119.5C 83.2594,121.898 83.9261,123.898 85.5,125.5C 85.2322,127.099 85.5655,128.432 86.5,129.5C 86.5,130.5 86.5,131.5 86.5,132.5C 74.3136,131.357 62.147,131.357 50,132.5C 48.9701,132.164 48.4701,131.497 48.5,130.5C 49.5664,128.299 50.233,125.965 50.5,123.5C 51.9238,121.485 52.5905,119.152 52.5,116.5C 55.4341,108.78 57.7674,100.78 59.5,92.5C 61.1595,91.0298 63.1595,90.3631 65.5,90.5C 68.1764,90.837 70.843,91.1703 73.5,91.5 Z"/></g>
<g><path style="opacity:0.057" fill="#1f91c0" d="M 93.5,17.5 C 95.5529,17.4021 97.2196,18.0687 98.5,19.5C 96.4471,19.5979 94.7804,18.9313 93.5,17.5 Z"/></g>
<g><path style="opacity:0.008" fill="#1f91c0" d="M 99.5,20.5 C 101.404,20.7376 102.738,21.7376 103.5,23.5C 101.596,23.2624 100.262,22.2624 99.5,20.5 Z"/></g>
<g><path style="opacity:0.145" fill="#1f91c0" d="M 70.5,27.5 C 69.5655,26.4324 69.2322,25.099 69.5,23.5C 64.9691,23.1499 60.6358,23.8166 56.5,25.5C 57.0577,24.2101 58.0577,23.3768 59.5,23C 63.1667,22.3333 66.8333,22.3333 70.5,23C 71.4132,24.4139 71.4132,25.9139 70.5,27.5 Z"/></g>
<g><path style="opacity:0.119" fill="#1f91c0" d="M 93.5,23.5 C 89.1632,22.6529 84.8299,22.9863 80.5,24.5C 84.6582,21.1292 88.9915,20.7959 93.5,23.5 Z"/></g>
<g><path style="opacity:0.796" fill="#1f91c0" d="M 48.5,25.5 C 48.573,27.0269 47.9063,28.0269 46.5,28.5C 46.427,26.9731 47.0937,25.9731 48.5,25.5 Z"/></g>
<g><path style="opacity:0.314" fill="#1f91c0" d="M 104.5,25.5 C 105.906,25.9731 106.573,26.9731 106.5,28.5C 105.094,28.0269 104.427,27.0269 104.5,25.5 Z"/></g>
<g><path style="opacity:0.012" fill="#1f91c0" d="M 53.5,27.5 C 53.573,29.0269 52.9063,30.0269 51.5,30.5C 51.427,28.9731 52.0937,27.9731 53.5,27.5 Z"/></g>
<g><path style="opacity:0.192" fill="#1f91c0" d="M 70.5,27.5 C 72.1172,28.038 73.7839,28.3713 75.5,28.5C 73.5453,29.9302 71.8786,29.5969 70.5,27.5 Z"/></g>
<g><path style="opacity:0.322" fill="#1f91c0" d="M 80.5,37.5 C 76.1667,36.1667 71.8333,36.1667 67.5,37.5C 67.6107,36.8826 67.944,36.3826 68.5,36C 72.1667,35.3333 75.8333,35.3333 79.5,36C 80.056,36.3826 80.3893,36.8826 80.5,37.5 Z"/></g>
<g><path style="opacity:0.075" fill="#1f91c0" d="M 44.5,32.5 C 43.9707,37.8223 43.4707,43.1557 43,48.5C 42.6174,49.056 42.1174,49.3893 41.5,49.5C 41.9137,43.6012 42.9137,37.9345 44.5,32.5 Z"/></g>
<g><path style="opacity:0.996" fill="#1f91c0" d="M 80.5,37.5 C 80.5,38.8333 80.5,40.1667 80.5,41.5C 76.6047,42.2248 72.6047,42.8914 68.5,43.5C 67.1667,43.5 66.5,44.1667 66.5,45.5C 66.0372,48.3303 65.3705,50.997 64.5,53.5C 63.1667,53.5 61.8333,53.5 60.5,53.5C 60.3424,50.0977 60.6758,46.7644 61.5,43.5C 62.5,40.5 64.5,38.5 67.5,37.5C 71.8333,36.1667 76.1667,36.1667 80.5,37.5 Z"/></g>
<g><path style="opacity:0.319" fill="#1f91c0" d="M 102.5,32.5 C 103.222,32.9175 103.722,33.5842 104,34.5C 104.497,37.146 104.664,39.8127 104.5,42.5C 103.566,39.3443 102.899,36.0109 102.5,32.5 Z"/></g>
<g><path style="opacity:0.933" fill="#1f91c0" d="M 118.5,36.5 C 121.522,37.5222 123.522,39.5222 124.5,42.5C 122.118,40.785 120.118,38.785 118.5,36.5 Z"/></g>
<g><path style="opacity:0.102" fill="#1f91c0" d="M 112.5,39.5 C 110.97,40.2112 109.637,41.2112 108.5,42.5C 108.707,39.3657 110.04,38.3657 112.5,39.5 Z"/></g>
<g><path style="opacity:0.059" fill="#1f91c0" d="M 80.5,37.5 C 82.7813,38.6344 82.7813,39.9678 80.5,41.5C 80.5,40.1667 80.5,38.8333 80.5,37.5 Z"/></g>
<g><path style="opacity:0.863" fill="#1f91c0" d="M 50.5,32.5 C 50.2462,37.7431 50.0795,43.0765 50,48.5C 49.6174,49.056 49.1174,49.3893 48.5,49.5C 48.3341,44.4889 48.5007,39.4889 49,34.5C 49.2784,33.5842 49.7784,32.9175 50.5,32.5 Z"/></g>
<g><path style="opacity:0.016" fill="#1f91c0" d="M 68.5,43.5 C 68.1667,44.5 67.5,45.1667 66.5,45.5C 66.5,44.1667 67.1667,43.5 68.5,43.5 Z"/></g>
<g><path style="opacity:0.2" fill="#1f91c0" d="M 124.5,42.5 C 125.906,42.9731 126.573,43.9731 126.5,45.5C 125.094,45.0269 124.427,44.0269 124.5,42.5 Z"/></g>
<g><path style="opacity:0.537" fill="#1f91c0" d="M 41.5,49.5 C 41.573,51.0269 40.9063,52.0269 39.5,52.5C 39.427,50.9731 40.0937,49.9731 41.5,49.5 Z"/></g>
<g><path style="opacity:0.055" fill="#1f91c0" d="M 48.5,49.5 C 48.573,51.0269 47.9063,52.0269 46.5,52.5C 46.427,50.9731 47.0937,49.9731 48.5,49.5 Z"/></g>
<g><path style="opacity:0.861" fill="#1f91c0" d="M 126.5,45.5 C 129.167,49.8333 129.167,54.1667 126.5,58.5C 126.5,54.1667 126.5,49.8333 126.5,45.5 Z"/></g>
<g><path style="opacity:0.09" fill="#1f91c0" d="M 61.5,43.5 C 60.6758,46.7644 60.3424,50.0977 60.5,53.5C 61.8333,53.5 63.1667,53.5 64.5,53.5C 63.0813,54.4511 61.4147,54.7845 59.5,54.5C 59.335,51.1501 59.5017,47.8168 60,44.5C 60.3826,43.944 60.8826,43.6107 61.5,43.5 Z"/></g>
<g><path style="opacity:0.088" fill="#1f91c0" d="M 46.5,52.5 C 46.3404,54.153 45.6737,55.4863 44.5,56.5C 44.2291,54.6203 44.8958,53.287 46.5,52.5 Z"/></g>
<g><path style="opacity:0.068" fill="#1f91c0" d="M 39.5,53.5 C 38.9492,56.8067 38.6159,60.1401 38.5,63.5C 37.8442,62.3784 37.5108,61.0451 37.5,59.5C 37.361,57.1175 38.0277,55.1175 39.5,53.5 Z"/></g>
<g><path style="opacity:0.337" fill="#1f91c0" d="M 120.5,58.5 C 120.573,60.0269 119.906,61.0269 118.5,61.5C 118.427,59.9731 119.094,58.9731 120.5,58.5 Z"/></g>
<g><path style="opacity:0.647" fill="#1f91c0" d="M 45.5,65.5 C 47.1667,66.5 48.5,67.8333 49.5,69.5C 47.1667,69.1667 45.8333,67.8333 45.5,65.5 Z"/></g>
<g><path style="opacity:0.855" fill="#1f91c0" d="M 104.5,65.5 C 102.095,66.7682 99.4282,67.4349 96.5,67.5C 98.8383,65.9605 101.505,65.2938 104.5,65.5 Z"/></g>
<g><path style="opacity:0.631" fill="#1f91c0" d="M 95.5,67.5 C 95.0825,68.2216 94.4158,68.7216 93.5,69C 88.8452,69.4992 84.1785,69.6658 79.5,69.5C 84.6808,68.6849 90.0142,68.0182 95.5,67.5 Z"/></g>
<g><path style="opacity:0.027" fill="#1f91c0" d="M 41.5,69.5 C 43.1667,70.5 44.5,71.8333 45.5,73.5C 43.1667,73.1667 41.8333,71.8333 41.5,69.5 Z"/></g>
<g><path style="opacity:1" fill="#1f91c0" d="M 50.5,70.5 C 53.972,71.5772 54.3053,73.2439 51.5,75.5C 51.634,73.7085 51.3007,72.0418 50.5,70.5 Z"/></g>
<g><path style="opacity:0.165" fill="#1f91c0" d="M 45.5,73.5 C 47.0269,73.427 48.0269,74.0937 48.5,75.5C 46.9731,75.573 45.9731,74.9063 45.5,73.5 Z"/></g>
<g><path style="opacity:0.076" fill="#1f91c0" d="M 86.5,73.5 C 83.997,74.3705 81.3303,75.0372 78.5,75.5C 78.6107,74.8826 78.944,74.3826 79.5,74C 81.8098,73.5034 84.1432,73.3367 86.5,73.5 Z"/></g>
<g><path style="opacity:0.024" fill="#1f91c0" d="M 78.5,75.5 C 78.1667,76.5 77.5,77.1667 76.5,77.5C 76.5,76.1667 77.1667,75.5 78.5,75.5 Z"/></g>
<g><path style="opacity:0.008" fill="#1f91c0" d="M 75.5,78.5 C 75.3253,80.6208 75.6586,82.6208 76.5,84.5C 75.3065,84.0296 74.6399,83.0296 74.5,81.5C 74.5195,80.2739 74.8529,79.2739 75.5,78.5 Z"/></g>
<g><path style="opacity:0.149" fill="#1f91c0" d="M 70.5,76.5 C 70.4519,79.3128 69.7853,81.9795 68.5,84.5C 64.8776,85.3253 61.211,85.8253 57.5,86C 56.3636,87.1451 55.3636,88.3117 54.5,89.5C 54.2965,87.6096 54.9632,86.1096 56.5,85C 60.211,84.8253 63.8776,84.3253 67.5,83.5C 68.3299,80.9836 69.3299,78.6502 70.5,76.5 Z"/></g>
<g><path style="opacity:0.31" fill="#1f91c0" d="M 73.5,91.5 C 70.843,91.1703 68.1764,90.837 65.5,90.5C 63.1595,90.3631 61.1595,91.0298 59.5,92.5C 59.4142,91.5041 59.7476,90.6708 60.5,90C 62.3333,89.8333 64.1667,89.6667 66,89.5C 68.8655,89.2999 71.3655,89.9666 73.5,91.5 Z"/></g>
<g><path style="opacity:0.882" fill="#1f91c0" d="M 79.5,87.5 C 81.0719,90.2154 82.0719,93.2154 82.5,96.5C 80.5275,93.9164 79.5275,90.9164 79.5,87.5 Z"/></g>
<g><path style="opacity:0.757" fill="#1f91c0" d="M 112.5,91.5 C 109.391,91.2641 106.391,91.5975 103.5,92.5C 103.484,90.5159 104.484,89.5159 106.5,89.5C 108.717,89.8783 110.717,90.545 112.5,91.5 Z"/></g>
<g><path style="opacity:0.992" fill="#1f91c0" d="M 135.5,92.5 C 135.427,94.0269 136.094,95.0269 137.5,95.5C 137.427,97.0269 138.094,98.0269 139.5,98.5C 139.427,100.027 140.094,101.027 141.5,101.5C 142.587,105.573 145.254,107.239 149.5,106.5C 150.45,116.448 150.784,126.448 150.5,136.5C 150.389,137.117 150.056,137.617 149.5,138C 131.833,138.667 114.167,138.667 96.5,138C 95.1991,136.384 95.1991,134.884 96.5,133.5C 113.167,133.5 129.833,133.5 146.5,133.5C 146.825,126.313 146.491,119.313 145.5,112.5C 144.738,110.738 143.404,109.738 141.5,109.5C 137.432,105.761 134.099,101.428 131.5,96.5C 131.44,95.9569 131.107,95.6236 130.5,95.5C 129.509,99.4454 129.176,103.445 129.5,107.5C 129.509,110.136 128.175,111.469 125.5,111.5C 118.242,108.909 113.242,103.909 110.5,96.5C 109.377,95.2426 108.711,95.5759 108.5,97.5C 109.656,101.903 109.323,106.237 107.5,110.5C 105.027,111.797 102.693,111.797 100.5,110.5C 100.027,109.094 99.0269,108.427 97.5,108.5C 93.7629,104.698 90.7629,100.365 88.5,95.5C 88.2155,93.5853 88.5489,91.9187 89.5,90.5C 91.7157,91.2026 93.549,92.5359 95,94.5C 97.0777,98.7241 99.911,102.057 103.5,104.5C 102.356,100.352 102.356,96.3522 103.5,92.5C 106.391,91.5975 109.391,91.2641 112.5,91.5C 113.492,91.3284 114.158,91.6618 114.5,92.5C 114.427,94.0269 115.094,95.0269 116.5,95.5C 116.427,97.0269 117.094,98.0269 118.5,98.5C 120.543,99.5794 121.876,101.246 122.5,103.5C 123.548,105.933 124.214,105.933 124.5,103.5C 124.682,101.409 124.348,99.4086 123.5,97.5C 124.219,91.261 127.552,88.761 133.5,90C 134.381,90.7083 135.047,91.5416 135.5,92.5 Z"/></g>
<g><path style="opacity:0.702" fill="#1f91c0" d="M 89.5,90.5 C 88.5489,91.9187 88.2155,93.5853 88.5,95.5C 86.5946,93.951 86.2613,92.1176 87.5,90C 88.4368,89.3083 89.1034,89.475 89.5,90.5 Z"/></g>
<g><path style="opacity:0.757" fill="#1f91c0" d="M 54.5,89.5 C 54.8294,92.2282 54.1628,94.5615 52.5,96.5C 52.7215,93.9327 53.3882,91.5994 54.5,89.5 Z"/></g>
<g><path style="opacity:0.471" fill="#1f91c0" d="M 114.5,92.5 C 115.906,92.9731 116.573,93.9731 116.5,95.5C 115.094,95.0269 114.427,94.0269 114.5,92.5 Z"/></g>
<g><path style="opacity:0.475" fill="#1f91c0" d="M 135.5,92.5 C 136.906,92.9731 137.573,93.9731 137.5,95.5C 136.094,95.0269 135.427,94.0269 135.5,92.5 Z"/></g>
<g><path style="opacity:0.008" fill="#1f91c0" d="M 110.5,96.5 C 109.833,96.8333 109.167,97.1667 108.5,97.5C 108.711,95.5759 109.377,95.2426 110.5,96.5 Z"/></g>
<g><path style="opacity:0.076" fill="#1f91c0" d="M 131.5,96.5 C 130.833,100.167 130.167,103.833 129.5,107.5C 129.176,103.445 129.509,99.4454 130.5,95.5C 131.107,95.6236 131.44,95.9569 131.5,96.5 Z"/></g>
<g><path style="opacity:0.58" fill="#1f91c0" d="M 116.5,95.5 C 117.906,95.9731 118.573,96.9731 118.5,98.5C 117.094,98.0269 116.427,97.0269 116.5,95.5 Z"/></g>
<g><path style="opacity:0.42" fill="#1f91c0" d="M 137.5,95.5 C 138.906,95.9731 139.573,96.9731 139.5,98.5C 138.094,98.0269 137.427,97.0269 137.5,95.5 Z"/></g>
<g><path style="opacity:0.698" fill="#1f91c0" d="M 52.5,96.5 C 52.8294,99.2282 52.1628,101.562 50.5,103.5C 50.7215,100.933 51.3882,98.5994 52.5,96.5 Z"/></g>
<g><path style="opacity:0.431" fill="#1f91c0" d="M 139.5,98.5 C 140.906,98.9731 141.573,99.9731 141.5,101.5C 140.094,101.027 139.427,100.027 139.5,98.5 Z"/></g>
<g><path style="opacity:0.092" fill="#1f91c0" d="M 122.5,103.5 C 123.167,103.5 123.833,103.5 124.5,103.5C 124.214,105.933 123.548,105.933 122.5,103.5 Z"/></g>
<g><path style="opacity:0.337" fill="#1f91c0" d="M 141.5,101.5 C 143.707,104.067 146.373,105.733 149.5,106.5C 145.254,107.239 142.587,105.573 141.5,101.5 Z"/></g>
<g><path style="opacity:0.282" fill="#1f91c0" d="M 97.5,108.5 C 99.0269,108.427 100.027,109.094 100.5,110.5C 98.9731,110.573 97.9731,109.906 97.5,108.5 Z"/></g>
<g><path style="opacity:0.757" fill="#1f91c0" d="M 141.5,109.5 C 143.404,109.738 144.738,110.738 145.5,112.5C 143.596,112.262 142.262,111.262 141.5,109.5 Z"/></g>
<g><path style="opacity:0.851" fill="#1f91c0" d="M 49.5,107.5 C 49.68,111.286 48.68,114.619 46.5,117.5C 46.8993,113.884 47.8993,110.55 49.5,107.5 Z"/></g>
<g><path style="opacity:0.039" fill="#1f91c0" d="M 52.5,116.5 C 52.5905,119.152 51.9238,121.485 50.5,123.5C 50.4095,120.848 51.0762,118.515 52.5,116.5 Z"/></g>
<g><path style="opacity:0.751" fill="#1f91c0" d="M 149.5,106.5 C 150.117,106.611 150.617,106.944 151,107.5C 151.555,113.829 152.055,120.162 152.5,126.5C 152.685,130.141 152.019,133.474 150.5,136.5C 150.784,126.448 150.45,116.448 149.5,106.5 Z"/></g>
<g><path style="opacity:0.057" fill="#1f91c0" d="M 83.5,119.5 C 84.7384,121.214 85.405,123.214 85.5,125.5C 83.9261,123.898 83.2594,121.898 83.5,119.5 Z"/></g>
<g><path style="opacity:0.993" fill="#1f91c0" d="M 113.5,122.5 C 113.5,123.833 113.5,125.167 113.5,126.5C 111.167,126.5 108.833,126.5 106.5,126.5C 106.5,125.167 106.5,123.833 106.5,122.5C 108.833,121.167 111.167,121.167 113.5,122.5 Z"/></g>
<g><path style="opacity:0.967" fill="#1f91c0" d="M 126.5,122.5 C 126.5,123.833 126.5,125.167 126.5,126.5C 124.5,126.5 122.5,126.5 120.5,126.5C 120.5,125.167 120.5,123.833 120.5,122.5C 122.389,121.258 124.389,121.258 126.5,122.5 Z"/></g>
<g><path style="opacity:0.976" fill="#1f91c0" d="M 139.5,122.5 C 139.5,123.833 139.5,125.167 139.5,126.5C 137.5,126.5 135.5,126.5 133.5,126.5C 132.199,125.116 132.199,123.616 133.5,122C 135.712,121.211 137.712,121.378 139.5,122.5 Z"/></g>
<g><path style="opacity:0.401" fill="#1f91c0" d="M 106.5,122.5 C 106.5,123.833 106.5,125.167 106.5,126.5C 108.833,126.5 111.167,126.5 113.5,126.5C 113.5,125.167 113.5,123.833 113.5,122.5C 114.451,123.919 114.784,125.585 114.5,127.5C 111.5,127.5 108.5,127.5 105.5,127.5C 105.216,125.585 105.549,123.919 106.5,122.5 Z"/></g>
<g><path style="opacity:0.165" fill="#1f91c0" d="M 120.5,122.5 C 120.5,123.833 120.5,125.167 120.5,126.5C 122.5,126.5 124.5,126.5 126.5,126.5C 126.5,125.167 126.5,123.833 126.5,122.5C 128.273,123.314 128.773,124.648 128,126.5C 125,127.833 122,127.833 119,126.5C 118.227,124.648 118.727,123.314 120.5,122.5 Z"/></g>
<g><path style="opacity:0.545" fill="#1f91c0" d="M 139.5,122.5 C 141.582,123.585 141.916,125.085 140.5,127C 137.961,127.796 135.628,127.629 133.5,126.5C 135.5,126.5 137.5,126.5 139.5,126.5C 139.5,125.167 139.5,123.833 139.5,122.5 Z"/></g>
<g><path style="opacity:0.467" fill="#1f91c0" d="M 90.5,125.5 C 91.9256,127.679 92.5922,130.179 92.5,133C 92.4915,134.707 92.1582,136.207 91.5,137.5C 91.4955,133.466 91.1621,129.466 90.5,125.5 Z"/></g>
<g><path style="opacity:0.075" fill="#1f91c0" d="M 43.5,128.5 C 43.1667,131.167 42.8333,133.833 42.5,136.5C 41.254,133.707 41.5873,131.04 43.5,128.5 Z"/></g>
<g><path style="opacity:0.746" fill="#1f91c0" d="M 86.5,129.5 C 87.4345,130.568 87.7678,131.901 87.5,133.5C 74.1667,133.5 60.8333,133.5 47.5,133.5C 47.2627,132.209 47.596,131.209 48.5,130.5C 48.4701,131.497 48.9701,132.164 50,132.5C 62.147,131.357 74.3136,131.357 86.5,132.5C 86.5,131.5 86.5,130.5 86.5,129.5 Z"/></g>
<g><path style="opacity:0.362" fill="#1f91c0" d="M 145.5,112.5 C 146.491,119.313 146.825,126.313 146.5,133.5C 129.833,133.5 113.167,133.5 96.5,133.5C 112.658,132.504 128.991,132.17 145.5,132.5C 145.5,125.833 145.5,119.167 145.5,112.5 Z"/></g>
</svg>
